<svg width="111" height="106" viewBox="0 0 111 106" version="1.1" xmlns="http://www.w3.org/2000/svg" xmlns:xlink="http://www.w3.org/1999/xlink" id="el_HtevqyItb"><style>@-webkit-keyframes kf_el_M0jOzSESNoq_an_iWS4-mCZe{0%{-webkit-transform: translate(32.23267364501953px, 48.97306442260742px) translate(-32.23267364501953px, -48.97306442260742px) translate(2px, 0px);transform: translate(32.23267364501953px, 48.97306442260742px) translate(-32.23267364501953px, -48.97306442260742px) translate(2px, 0px);}100%{-webkit-transform: translate(32.23267364501953px, 48.97306442260742px) translate(-32.23267364501953px, -48.97306442260742px) translate(2px, 0px);transform: translate(32.23267364501953px, 48.97306442260742px) translate(-32.23267364501953px, -48.97306442260742px) translate(2px, 0px);}}@keyframes kf_el_M0jOzSESNoq_an_iWS4-mCZe{0%{-webkit-transform: translate(32.23267364501953px, 48.97306442260742px) translate(-32.23267364501953px, -48.97306442260742px) translate(2px, 0px);transform: translate(32.23267364501953px, 48.97306442260742px) translate(-32.23267364501953px, -48.97306442260742px) translate(2px, 0px);}100%{-webkit-transform: translate(32.23267364501953px, 48.97306442260742px) translate(-32.23267364501953px, -48.97306442260742px) translate(2px, 0px);transform: translate(32.23267364501953px, 48.97306442260742px) translate(-32.23267364501953px, -48.97306442260742px) translate(2px, 0px);}}@-webkit-keyframes kf_el_2_mHdvWnaBU_an_0XxhumRrP{0%{-webkit-transform: translate(29.824878692626953px, 47.28550338745117px) translate(-29.824878692626953px, -47.28550338745117px) translate(2px, 0px);transform: translate(29.824878692626953px, 47.28550338745117px) translate(-29.824878692626953px, -47.28550338745117px) translate(2px, 0px);}100%{-webkit-transform: translate(29.824878692626953px, 47.28550338745117px) translate(-29.824878692626953px, -47.28550338745117px) translate(2px, 0px);transform: translate(29.824878692626953px, 47.28550338745117px) translate(-29.824878692626953px, -47.28550338745117px) translate(2px, 0px);}}@keyframes kf_el_2_mHdvWnaBU_an_0XxhumRrP{0%{-webkit-transform: translate(29.824878692626953px, 47.28550338745117px) translate(-29.824878692626953px, -47.28550338745117px) translate(2px, 0px);transform: translate(29.824878692626953px, 47.28550338745117px) translate(-29.824878692626953px, -47.28550338745117px) translate(2px, 0px);}100%{-webkit-transform: translate(29.824878692626953px, 47.28550338745117px) translate(-29.824878692626953px, -47.28550338745117px) translate(2px, 0px);transform: translate(29.824878692626953px, 47.28550338745117px) translate(-29.824878692626953px, -47.28550338745117px) translate(2px, 0px);}}@-webkit-keyframes kf_el_mE0TFILPoCA_an_c9T26tAoc{0%{-webkit-transform: translate(12.5px, 12.5px) scale(0.9, 0.9) translate(-12.5px, -12.5px);transform: translate(12.5px, 12.5px) scale(0.9, 0.9) translate(-12.5px, -12.5px);}7.58%{-webkit-transform: translate(12.5px, 12.5px) scale(1, 1) translate(-12.5px, -12.5px);transform: translate(12.5px, 12.5px) scale(1, 1) translate(-12.5px, -12.5px);}16.67%{-webkit-transform: translate(12.5px, 12.5px) scale(0.95, 0.95) translate(-12.5px, -12.5px);transform: translate(12.5px, 12.5px) scale(0.95, 0.95) translate(-12.5px, -12.5px);}22.73%{-webkit-transform: translate(12.5px, 12.5px) scale(1, 1) translate(-12.5px, -12.5px);transform: translate(12.5px, 12.5px) scale(1, 1) translate(-12.5px, -12.5px);}100%{-webkit-transform: translate(12.5px, 12.5px) scale(1, 1) translate(-12.5px, -12.5px);transform: translate(12.5px, 12.5px) scale(1, 1) translate(-12.5px, -12.5px);}}@keyframes kf_el_mE0TFILPoCA_an_c9T26tAoc{0%{-webkit-transform: translate(12.5px, 12.5px) scale(0.9, 0.9) translate(-12.5px, -12.5px);transform: translate(12.5px, 12.5px) scale(0.9, 0.9) translate(-12.5px, -12.5px);}7.58%{-webkit-transform: translate(12.5px, 12.5px) scale(1, 1) translate(-12.5px, -12.5px);transform: translate(12.5px, 12.5px) scale(1, 1) translate(-12.5px, -12.5px);}16.67%{-webkit-transform: translate(12.5px, 12.5px) scale(0.95, 0.95) translate(-12.5px, -12.5px);transform: translate(12.5px, 12.5px) scale(0.95, 0.95) translate(-12.5px, -12.5px);}22.73%{-webkit-transform: translate(12.5px, 12.5px) scale(1, 1) translate(-12.5px, -12.5px);transform: translate(12.5px, 12.5px) scale(1, 1) translate(-12.5px, -12.5px);}100%{-webkit-transform: translate(12.5px, 12.5px) scale(1, 1) translate(-12.5px, -12.5px);transform: translate(12.5px, 12.5px) scale(1, 1) translate(-12.5px, -12.5px);}}@-webkit-keyframes kf_el_pWf-9Vfacwh_an_O3V94MZghC{0%{stroke-dasharray: 17.29;}22.73%{stroke-dasharray: 17.29;}68.18%{stroke-dasharray: 17.29;}100%{stroke-dasharray: 17.29;}}@keyframes kf_el_pWf-9Vfacwh_an_O3V94MZghC{0%{stroke-dasharray: 17.29;}22.73%{stroke-dasharray: 17.29;}68.18%{stroke-dasharray: 17.29;}100%{stroke-dasharray: 17.29;}}@-webkit-keyframes kf_el_pWf-9Vfacwh_an_6t0mi2KBn{0%{stroke-dashoffset: 17.29;}22.73%{stroke-dashoffset: 0;}68.18%{stroke-dashoffset: 0;}100%{stroke-dashoffset: 0;}}@keyframes kf_el_pWf-9Vfacwh_an_6t0mi2KBn{0%{stroke-dashoffset: 17.29;}22.73%{stroke-dashoffset: 0;}68.18%{stroke-dashoffset: 0;}100%{stroke-dashoffset: 0;}}#el_HtevqyItb *{-webkit-animation-duration: 2.2s;animation-duration: 2.2s;-webkit-animation-iteration-count: infinite;animation-iteration-count: infinite;-webkit-animation-timing-function: cubic-bezier(0, 0, 1, 1);animation-timing-function: cubic-bezier(0, 0, 1, 1);}#el_-F9YwCWdmq{stroke: none;stroke-width: 1;fill: none;}#el_87zREW8arW{fill: url(#linearGradient-1);}#el_Giva7KctBn{fill: #0189FF;-webkit-transform: translate(-6.617464116610272px, 4.388020079141093px) rotate(-7deg);transform: translate(-6.617464116610272px, 4.388020079141093px) rotate(-7deg);}#el_qVMAE_XSWs{-webkit-transform: translate(0px, 6px);transform: translate(0px, 6px);}#el_0ymORfc9IV{fill: #93CDFF;}#el_FX50XiwQj3{fill: #BEE1FF;}#el_Po_GB0Cvii{fill: #D8EDFF;}#el_PzGt5QSUt4{fill: #E7F4FF;}#el_g1w_KIGvLL{fill: url(#linearGradient-2);-webkit-transform: translate(84.402972px, 0px) scale(-1, 1);transform: translate(84.402972px, 0px) scale(-1, 1);}#el_7L-ZVgfOV1{fill: url(#linearGradient-3);-webkit-transform: translate(67.127694px, 0px) scale(-1, 1);transform: translate(67.127694px, 0px) scale(-1, 1);}#el_WCXaBafsOj{-webkit-transform: translate(28.177204619155px, 25.974546825010002px) rotate(11deg);transform: translate(28.177204619155px, 25.974546825010002px) rotate(11deg);}#el_fn0PAvu3E5{-webkit-transform: translate(27.644869441580003px, 33.56952724914px) rotate(-150deg);transform: translate(27.644869441580003px, 33.56952724914px) rotate(-150deg);}#el_oa_Ir9L9-k{-webkit-transform: translate(0px, 0px);transform: translate(0px, 0px);}#el_jeoadrtHsUw{fill: #FCB08E;-webkit-transform: translate(15.4822067925074px, -3.086461550536958px) rotate(-309deg);transform: translate(15.4822067925074px, -3.086461550536958px) rotate(-309deg);}#el_uuFdsgmEvOl{fill: url(#linearGradient-4);-webkit-transform: translate(2.617533336842521px, -1.9491245157560506px) rotate(17deg);transform: translate(2.617533336842521px, -1.9491245157560506px) rotate(17deg);}#el_tWmwTlB-zyL{fill: url(#linearGradient-5);-webkit-transform: translate(-7.396090369934122px, 5.411715815211224px) rotate(-14deg);transform: translate(-7.396090369934122px, 5.411715815211224px) rotate(-14deg);}#el_-WrbOPkflOD{fill: url(#linearGradient-1);}#el_iVyyGZC6NCy{fill: #0189FF;-webkit-transform: translate(-4.524303198127939px, 4.580782583130876px) rotate(-7deg);transform: translate(-4.524303198127939px, 4.580782583130876px) rotate(-7deg);}#el_wIG-7ERlDOu{fill: #2F2F2F;}#el_Ly-31HZb9gN{fill: #2F2F2F;}#el_cIdjEYtqoNf{fill: url(#linearGradient-6);}#el_hfAdvyAGI5h{fill: #0189FF;}#el_JvfD9ydUDUx{fill: #0189FF;}#el_dj_-wtdDVE0{fill: #0189FF;}#el_RV_yPdqHTOZ{fill: #0189FF;}#el_649vUCAz2Bz{fill: #0189FF;}#el_IRCVwcpWR4i{fill: #0189FF;}#el_ndA_1Nm4IJQ{stroke: #FFFFFF;stroke-width: 3;fill: #0189FF;}#el_zdKTV5t9ipT{stroke: #FFFFFF;stroke-width: 3;fill: #0189FF;}#el_WhIyTQk46n5{stroke: #FFFFFF;stroke-width: 3;fill: #0189FF;}#el_MfLSeYhNuhD{fill: #999999;}#el_-XvRNTrHfPR{-webkit-transform: translate(63px, 65px);transform: translate(63px, 65px);}#el_mE0TFILPoCA{fill: #60798E;}#el_pWf-9Vfacwh{stroke: #FFFFFF;stroke-width: 3;-webkit-animation-fill-mode: backwards, backwards;animation-fill-mode: backwards, backwards;stroke-dashoffset: 17.29;-webkit-animation-name: kf_el_pWf-9Vfacwh_an_6t0mi2KBn, kf_el_pWf-9Vfacwh_an_O3V94MZghC;animation-name: kf_el_pWf-9Vfacwh_an_6t0mi2KBn, kf_el_pWf-9Vfacwh_an_O3V94MZghC;-webkit-animation-timing-function: cubic-bezier(0, 0, 1, 1), cubic-bezier(0, 0, 1, 1);animation-timing-function: cubic-bezier(0, 0, 1, 1), cubic-bezier(0, 0, 1, 1);stroke-dasharray: 17.29;}#el_M0jOzSESNoq{fill: #FCB08E;-webkit-transform: translate(-0.9475211760877613px, 0.7380554973879541px) rotate(-361deg);transform: translate(-0.9475211760877613px, 0.7380554973879541px) rotate(-361deg);}#el_2_mHdvWnaBU{fill: url(#linearGradient-7);-webkit-transform: translate(-24.052943609455987px, 29.572961066559976px) rotate(-35deg);transform: translate(-24.052943609455987px, 29.572961066559976px) rotate(-35deg);}#el_mE0TFILPoCA_an_c9T26tAoc{-webkit-animation-fill-mode: backwards;animation-fill-mode: backwards;-webkit-transform: translate(12.5px, 12.5px) scale(0.9, 0.9) translate(-12.5px, -12.5px);transform: translate(12.5px, 12.5px) scale(0.9, 0.9) translate(-12.5px, -12.5px);-webkit-animation-name: kf_el_mE0TFILPoCA_an_c9T26tAoc;animation-name: kf_el_mE0TFILPoCA_an_c9T26tAoc;-webkit-animation-timing-function: cubic-bezier(0, 0, 1, 1);animation-timing-function: cubic-bezier(0, 0, 1, 1);}#el_2_mHdvWnaBU_an_0XxhumRrP{-webkit-animation-fill-mode: backwards;animation-fill-mode: backwards;-webkit-transform: translate(29.824878692626953px, 47.28550338745117px) translate(-29.824878692626953px, -47.28550338745117px) translate(2px, 0px);transform: translate(29.824878692626953px, 47.28550338745117px) translate(-29.824878692626953px, -47.28550338745117px) translate(2px, 0px);-webkit-animation-name: kf_el_2_mHdvWnaBU_an_0XxhumRrP;animation-name: kf_el_2_mHdvWnaBU_an_0XxhumRrP;-webkit-animation-timing-function: cubic-bezier(0, 0, 1, 1);animation-timing-function: cubic-bezier(0, 0, 1, 1);}#el_M0jOzSESNoq_an_iWS4-mCZe{-webkit-animation-fill-mode: backwards;animation-fill-mode: backwards;-webkit-transform: translate(32.23267364501953px, 48.97306442260742px) translate(-32.23267364501953px, -48.97306442260742px) translate(2px, 0px);transform: translate(32.23267364501953px, 48.97306442260742px) translate(-32.23267364501953px, -48.97306442260742px) translate(2px, 0px);-webkit-animation-name: kf_el_M0jOzSESNoq_an_iWS4-mCZe;animation-name: kf_el_M0jOzSESNoq_an_iWS4-mCZe;-webkit-animation-timing-function: cubic-bezier(0, 0, 1, 1);animation-timing-function: cubic-bezier(0, 0, 1, 1);}</style>
    <!-- Generator: Sketch 53.2 (72643) - https://sketchapp.com -->
    <title>Examen rendido masculino</title>
    <desc>Created with Sketch.</desc>
    <defs>
        <linearGradient x1="43.5108277%" y1="45.5898505%" x2="56.4891723%" y2="96.7031026%" id="linearGradient-1">
            <stop stop-color="#FEB195" offset="0%"/>
            <stop stop-color="#FCC5A6" offset="100%"/>
        </linearGradient>
        <linearGradient x1="46.6570145%" y1="21.1904792%" x2="54.8532999%" y2="75.296077%" id="linearGradient-2">
            <stop stop-color="#00559F" offset="0%"/>
            <stop stop-color="#0189FF" offset="100%"/>
        </linearGradient>
        <linearGradient x1="47.1873879%" y1="21.1904792%" x2="54.0833111%" y2="75.296077%" id="linearGradient-3">
            <stop stop-color="#00559F" offset="0%"/>
            <stop stop-color="#0189FF" offset="100%"/>
        </linearGradient>
        <linearGradient x1="77.7805927%" y1="121.584971%" x2="25.2374201%" y2="14.8998958%" id="linearGradient-4">
            <stop stop-color="#0084C1" offset="0%"/>
            <stop stop-color="#004D8E" offset="100%"/>
        </linearGradient>
        <linearGradient x1="50%" y1="0%" x2="50%" y2="100%" id="linearGradient-5">
            <stop stop-color="#900000" offset="0%"/>
            <stop stop-color="#CC0000" offset="100%"/>
        </linearGradient>
        <linearGradient x1="50%" y1="88.7308881%" x2="50%" y2="2.77555756e-15%" id="linearGradient-6">
            <stop stop-color="#E6E6E6" offset="0%"/>
            <stop stop-color="#BBBBBB" offset="100%"/>
        </linearGradient>
        <linearGradient x1="50%" y1="0%" x2="50%" y2="100%" id="linearGradient-7">
            <stop stop-color="#900000" offset="0%"/>
            <stop stop-color="#CC0000" offset="100%"/>
        </linearGradient>
    </defs>
    <g id="el_-F9YwCWdmq" fill-rule="evenodd">
        <g id="el_RTBzE0Fwvc">
            <path d="M39.0206575,53.8796963 C40.2908755,54.8755111 40.8626792,55.671247 40.7360684,56.2669039 C40.6452342,56.6942449 40.347113,57.0884994 39.9724716,57.3359042 C40.0270933,59.6951228 38.880922,61.7321836 36.9984758,62.2719664 C34.6328061,62.9503113 31.0861088,61.3687597 30.2042605,58.2933891 C29.3224121,55.2180185 31.4393508,51.813409 33.8050205,51.1350641 C35.7286744,50.5834652 37.82885,51.7652653 39.0206575,53.8796963 Z" id="el_87zREW8arW"/>
            <path d="M29.2180513,61.6236602 C30.2274508,61.9712244 31.7344804,62.075835 32.3418217,61.4521279 C33.0397604,60.7353822 32.7229953,59.2281918 31.9946498,58.8854261 C30.3974046,58.3166161 31.0843233,56.3216593 33.1109892,57.0194963 C35.1376551,57.7173333 38.8049286,55.5057413 38.4641571,53.7059587 C38.1233856,51.9061761 34.8807531,50.1858019 32.461062,50.8109834 C30.0413709,51.4361649 28.2805332,52.1708692 27.1128523,55.5620607 C25.9451714,58.9532523 27.0486795,60.8766856 29.2180513,61.6236602 Z" id="el_Giva7KctBn"/>
            <g id="el_uZvOtSUboR">
                <g id="el_qVMAE_XSWs">
                    <circle id="el_0ymORfc9IV" cx="50" cy="50" r="50"/>
                    <path d="M84.4113362,13.7250671 C83.8721035,16.6250083 80.8966668,19.1246053 75.4850261,21.2238584 C47.3678733,32.1309049 54.4135044,52.9842065 34.7241118,63.3187907 C23.0569367,69.4426668 11.9412746,68.9041052 1.37712536,61.7031058 C0.476820569,57.9489955 1.37134748e-12,54.0301815 1.37134748e-12,50 C1.37134748e-12,22.3857625 22.3857625,2.84217094e-14 50,2.84217094e-14 C63.3331158,2.84217094e-14 75.44732,5.21878114 84.4113362,13.7250671 Z" id="el_FX50XiwQj3"/>
                    <path d="M2.58970276e-12,48.5176343 C0.784049141,21.5890633 22.8600499,-2.13162821e-14 49.9784467,-2.13162821e-14 C59.5744489,-2.13162821e-14 68.5390729,2.70325154 76.1523385,7.38977455 C74.7453053,8.68187049 72.6625874,9.86293041 69.9041848,10.9329543 C43.565244,21.1502069 50.1652885,40.684684 31.7211113,50.3656785 C20.6138092,56.1956881 10.0401054,55.5796734 2.53397303e-12,48.5176343 Z" id="el_Po_GB0Cvii"/>
                    <path d="M2.6,34.0615856 C9.25410068,14.2622427 27.964469,3.90798505e-14 50.0059626,3.90798505e-14 C53.8901464,3.90798505e-14 57.6708855,0.442899641 61.3004325,1.28095163 C42.5109744,10.9990721 46.6582553,27.0535391 30.9527476,35.2970586 C21.0369043,40.5016944 11.5859884,40.08987 2.6,34.0615856 Z" id="el_PzGt5QSUt4"/>
                </g>
                <path d="M36,69.8115474 C36.3289326,76.6947678 36.7462929,82.8587623 37.2520808,88.3035311 C37.7578688,93.7482998 38.3907429,99.2197045 39.1507031,104.717745 L40.9274022,104.717745 C42.5962037,98.4511616 43.748631,93.2235682 44.384684,89.034965 C45.020737,84.8463619 46.360166,77.5013735 48.4029711,67 L36,69.8115474 Z" id="el_g1w_KIGvLL"/>
                <path d="M27.7247219,69.8115474 C28.0536545,76.6947678 28.4710148,82.8587623 28.9768028,88.3035311 C29.4825908,93.7482998 30.1154648,99.2197045 30.875425,104.717745 L32.6521241,104.717745 C34.3209257,98.4511616 35.4733529,93.2235682 36.1094059,89.034965 C36.6657696,85.3711407 37.7603019,79.2922956 39.3930029,70.7984299 C39.5489068,69.9873647 37.8760427,68.3878881 34.3744104,66 L27.7247219,69.8115474 Z" id="el_7L-ZVgfOV1"/>
                <g id="el_WCXaBafsOj">
                    <g id="el_fn0PAvu3E5">
                        <g id="el_oa_Ir9L9-k">
                            <path d="M3.81823709,9.02891987 C6.58804697,9.14545241 8.16498796,10.8084773 9.66744586,12.3599194 C11.9211327,14.6870826 14.5775657,16.5353903 17.239225,16.5353903 C19.9008843,16.5353903 21.7081859,16.3156317 19.6980442,18.2335841 C17.6879025,20.1515364 13.1038006,20.7129682 10.3814357,20.1773911 C7.65907074,19.6418139 5.47549986,19.685747 3.31792893,16.3623174 C0.716546762,12.3552601 0.636638862,8.65481582 3.81823709,9.02891987 Z" id="el_jeoadrtHsUw"/>
                            <path d="M4.80279624,13.5978825 C6.77718912,13.2490402 8.53152974,12.4726415 10.0658181,11.2686863 C11.6001064,10.0647312 12.7006057,8.98442598 13.367316,8.02777072 C11.4675365,4.68875457 8.70565068,2.69231838 5.08165863,2.03846215 C1.45766659,1.38460591 1.36471246,5.23774603 4.80279624,13.5978825 Z" id="el_uuFdsgmEvOl"/>
                        </g>
                    </g>
                    <path d="M33.2058093,44.0713791 C30.2323038,46.1187093 26.3706392,47.0814057 23.0217096,47.764374 C17.7505965,48.8393454 10.1794538,48.4406955 3.47298893,47.6416236 C3.65718951,39.3697642 6.50613066,32.8666733 7.4058415,29.0155046 C9.48988976,20.0948371 13.6795971,16.6285473 19.499994,17.3129311 C22.2698039,17.4294636 25.300155,18.8650242 26.1875872,20.903597 C28.6946456,26.6627089 32.4569479,38.2710495 33.2058093,44.0713791 Z" id="el_tWmwTlB-zyL"/>
                </g>
                <path d="M41.6430579,36.8646379 C42.913276,37.8604528 43.4850796,38.6561887 43.3584688,39.2518456 C43.2676347,39.6791866 42.9695134,40.0734411 42.594872,40.3208459 C42.6494937,42.6800645 41.5033224,44.7171253 39.6208763,45.256908 C37.2552065,45.9352529 33.7085092,44.3537014 32.8266609,41.2783308 C31.9448126,38.2029601 34.0617512,34.7983507 36.4274209,34.1200058 C38.3510748,33.5684069 40.4512504,34.750207 41.6430579,36.8646379 Z" id="el_-WrbOPkflOD"/>
                <path d="M31.8404517,44.6086019 C32.8498513,44.956166 34.3568808,45.0607767 34.9642221,44.4370696 C35.6621608,43.7203238 35.3453957,42.2131334 34.6170502,41.8703677 C33.019805,41.3015578 33.7067237,39.306601 35.7333896,40.004438 C37.7600555,40.702275 41.427329,38.490683 41.0865575,36.6909004 C40.745786,34.8911177 37.5031535,33.1707436 35.0834624,33.7959251 C32.6637713,34.4211065 30.9029337,35.1558108 29.7352528,38.5470024 C28.5675719,41.938194 29.6710799,43.8616273 31.8404517,44.6086019 Z" id="el_iVyyGZC6NCy"/>
                <polygon id="el_wIG-7ERlDOu" points="43 106 47.6377719 106 45.6263389 104 43.3514485 104"/>
                <polygon id="el_Ly-31HZb9gN" points="34 106 38.6377719 106 36.6263389 104 34.3514485 104"/>
                <path d="M51,-7.10542736e-15 L85.1023314,-7.10542736e-15 L102,19.0079162 L102,75.2556463 C102,78.01707 99.7614237,80.2556463 97,80.2556463 L51,80.2556463 C48.2385763,80.2556463 46,78.01707 46,75.2556463 L46,5 C46,2.23857625 48.2385763,-6.59816204e-15 51,-7.10542736e-15 Z" id="el_cIdjEYtqoNf"/>
                <rect id="el_hfAdvyAGI5h" x="65" y="25" width="46" height="3"/>
                <rect id="el_JvfD9ydUDUx" x="65" y="31" width="24" height="3"/>
                <rect id="el_dj_-wtdDVE0" x="65" y="44" width="46" height="3"/>
                <rect id="el_RV_yPdqHTOZ" x="65" y="50" width="24" height="3"/>
                <rect id="el_649vUCAz2Bz" x="65" y="63" width="46" height="3"/>
                <rect id="el_IRCVwcpWR4i" x="65" y="69" width="24" height="3"/>
                <circle id="el_ndA_1Nm4IJQ" cx="56" cy="29" r="4.5"/>
                <circle id="el_zdKTV5t9ipT" cx="56" cy="48" r="4.5"/>
                <circle id="el_WhIyTQk46n5" cx="56" cy="67" r="4.5"/>
                <polygon id="el_MfLSeYhNuhD" points="85 9.05941988e-14 85 19.0079162 102 19.0079162"/>
                <g id="el_-XvRNTrHfPR">
                    <g id="el_GTaETLuxFrK">
                        <g id="el_mE0TFILPoCA_an_c9T26tAoc" data-animator-group="true" data-animator-type="2"><circle id="el_mE0TFILPoCA" cx="12.5" cy="12.5" r="12.5"/></g>
                        <polyline id="el_pWf-9Vfacwh" stroke-linecap="round" stroke-linejoin="round" points="6 13.4718602 9.93748224 17.3746195 18.1800379 9"/>
                    </g>
                </g>
                <g id="el_M0jOzSESNoq_an_iWS4-mCZe" data-animator-group="true" data-animator-type="0"><path d="M34.6543133,48.9992031 C37.4241232,49.1157357 39.0010642,50.7787606 40.5035221,52.3302027 C42.7572089,54.6573659 45.4136419,56.5056736 48.0753012,56.5056736 C50.7369606,56.5056736 52.5442622,56.285915 50.5341205,58.2038673 C48.5239787,60.1218196 43.9398768,60.6832515 41.2175119,60.1476743 C38.495147,59.6120972 36.3115761,59.6560303 34.1540052,56.3326007 C31.552623,52.3255434 31.4727151,48.6250991 34.6543133,48.9992031 Z" id="el_M0jOzSESNoq"/></g>
                <g id="el_2_mHdvWnaBU_an_0XxhumRrP" data-animator-group="true" data-animator-type="0"><path d="M31.3511074,58.5736502 C33.3255003,58.2248079 35.0798409,57.4484092 36.6141292,56.2444541 C38.1484176,55.0404989 39.2489169,53.9601937 39.9156272,53.0035384 C37.7355043,48.2296124 35.1867576,46.4449607 32.2693869,47.6495834 C29.3520163,48.8542061 29.0459231,52.4955617 31.3511074,58.5736502 Z" id="el_2_mHdvWnaBU"/></g>
            </g>
        </g>
    </g>
</svg>