
<svg xmlns="http://www.w3.org/2000/svg" width="70" height="10" viewBox="0 0 70 10">
    <g fill="#0189FF" fill-rule="evenodd">
        <path d="M3.549 5.587L0 4.572l.67-2.018 3.49 1.403L3.948 0h2.198l-.224 4.025 3.42-1.368L10 4.709 6.404 5.724l2.35 3.022L6.968 10 4.924 6.693 2.89 9.897 1.093 8.69zM33.549 5.587L30 4.572l.67-2.018 3.49 1.403L33.948 0h2.198l-.224 4.025 3.42-1.368L40 4.709l-3.596 1.015 2.35 3.022L36.968 10l-2.044-3.307-2.033 3.204-1.798-1.208zM63.549 5.587L60 4.572l.67-2.018 3.49 1.403L63.948 0h2.198l-.224 4.025 3.42-1.368L70 4.709l-3.596 1.015 2.35 3.022L66.968 10l-2.044-3.307-2.033 3.204-1.798-1.208z"/>
    </g>
</svg>
