<svg xmlns="http://www.w3.org/2000/svg" xmlns:xlink="http://www.w3.org/1999/xlink" width="123" height="30" viewBox="0 0 123 30">
    <defs>
        <path id="a" d="M.046.046h16.966v8.976H.046z"/>
        <path id="c" d="M.012.004h5.253v5.217H.012z"/>
    </defs>
    <g fill="none" fill-rule="evenodd">
        <path fill="#FFF" d="M37.624 7.716c-3.391 0-6.084 1.15-8.997 4.211-1.139 1.147-11.037 11.547-12.883 12.962-.733.56-3.238 2.4-5.509 3.14l.002.001-.118.046c-.974.382-2.19.65-3.593.698 0 0-.425-.004-.425.105 0 0-.077.123.38.29 1.327.43 2.936.746 4.265.746H11.53V29.9c3.002-.107 5.78-.742 7.76-2.199 1.732-1.274 5.064-4.527 6.583-6.083 1.52-1.558 5.47-5.866 5.47-5.866 1.798-2.047 3.307-3.65 6.158-3.65 1.869 0 3.601.886 5.035 2.184.245.227.453.234.453.234s.29.05.586-.083c.298-.145.69-.446 1.117-.875.298-.3.535-.62.721-.907.252-.39.249-.726.249-.726 0-.426-.18-.617-.28-.732-1.952-1.989-4.415-3.482-7.758-3.482"/>
        <g transform="translate(28.21 20.893)">
            <mask id="b" fill="#fff">
                <use xlink:href="#a"/>
            </mask>
            <path fill="#FFF" d="M16.127 3.808a5.632 5.632 0 0 0-.87-.765c-.38-.272-.716-.287-.716-.287-.364-.02-.563.097-.69.19-1.267 1.042-2.69 1.71-4.487 1.71-2.78 0-4.889-1.91-5.583-3.794a53.65 53.65 0 0 1-.22-.577c-.158-.317-.373-.259-.48-.16L.347 2.98C.071 3.286-.062 3.607.152 4c1.894 2.918 4.957 5.02 8.994 5.02 3.556 0 5.843-1.358 7.74-3.213.096-.147.108-.255.108-.255s.065-.285-.052-.584c-.129-.305-.408-.713-.815-1.16" mask="url(#b)"/>
        </g>
        <path fill="#FFF" d="M90.446 16.938c-2.502-.798-4.8-1.438-4.8-2.955v-.08c0-1.238 1.089-2.116 2.984-2.116 1.572 0 2.8.27 4.382 1.106.005-.013 0 0 0 0 .155.084.364.193.771.141 0 0 .32-.037.663-.322.25-.21.528-.472.776-.787.357-.455.596-.861.697-1.16.091-.293.007-.56.007-.56s-.033-.193-.28-.396c-2.272-1.267-4.47-1.856-6.895-1.856-4.234 0-7.583 2.435-7.583 6.43v.079c0 4.033 3.51 5.31 6.656 6.19 2.5.759 4.76 1.316 4.76 2.954v.08c0 1.397-1.21 2.276-3.308 2.276-1.977 0-3.769-.458-5.722-1.723v.002c-.147-.097-.337-.24-.745-.22 0 0-.32.014-.683.27-.265.189-.56.428-.831.722-.39.424-.658.809-.781 1.096-.113.285-.051.557-.051.557s.018.186.234.401c2.56 1.796 5.648 2.729 8.458 2.729 4.437 0 7.906-2.197 7.906-6.629v-.08c0-3.793-3.51-5.192-6.615-6.149M109.093 16.938c-2.501-.798-4.8-1.438-4.8-2.955v-.08c0-1.238 1.089-2.116 2.984-2.116 1.571 0 2.8.27 4.382 1.106.005-.013 0 0 0 0 .155.084.364.193.771.141 0 0 .32-.037.663-.322.25-.21.527-.472.776-.787.357-.455.596-.861.697-1.16.09-.293.007-.56.007-.56s-.033-.193-.28-.396c-2.273-1.267-4.47-1.856-6.894-1.856-4.236 0-7.584 2.435-7.584 6.43v.079c0 4.033 3.51 5.31 6.656 6.19 2.5.759 4.76 1.316 4.76 2.954v.08c0 1.397-1.21 2.276-3.308 2.276-1.978 0-3.768-.458-5.721-1.723v.002c-.147-.097-.338-.24-.746-.22 0 0-.32.013-.683.27a5.386 5.386 0 0 0-.83.722c-.39.424-.658.809-.782 1.096-.113.285-.05.557-.05.557s.017.186.234.401c2.559 1.796 5.647 2.729 8.458 2.729 4.436 0 7.905-2.197 7.905-6.629v-.08c0-3.793-3.51-5.192-6.615-6.149M53.54.246c-.266-.102-.645-.18-1.109-.224A8.987 8.987 0 0 0 51.817 0c-.441 0-1.214.086-1.247.09-.531.093-.816.357-.816.357-.273.248-.354.478-.387.65v27.214c0 .38.239.615.239.615s.144.228.49.372c.358.138.924.233 1.626.257.49.017.95-.034 1.342-.102.533-.092.816-.355.816-.355.274-.25.355-.479.388-.652V1.235a.914.914 0 0 0-.239-.616s-.143-.229-.49-.373M7.414 25.237c-.746-.599-1.312-1.395-1.634-1.993-.358-.664-.647-1.576-.777-2.438h.003c-.026-.2-.051-.4-.071-.605h.003c-.11-.976-.102-2.15.174-3.46.012-.059.028-.114.043-.17H5.14c.61-2.498 2.229-4.277 4.47-4.688.326-.06.666-.091 1.016-.091 3.629 0 5.148 2.098 5.367 4.559a.747.747 0 0 1-.09.388c-.13.214-.433.194-.433.194H12.141v-.003h-1.799c-.716 0-1.239.456-1.243 2.177-.003 1.604.538 2.18 1.258 2.18h1.799l1.915.004c.348 0 .562-.167.708-.277l.177-.155.014-.017.002.001c1.184-1.054 3.833-3.888 4.952-4.96.545-.542.37-1.194.37-1.194-.883-3.713-3.699-6.973-9.626-6.973-2.885 0-5.38 1.091-7.23 2.877C1.281 12.672 0 15.693 0 19.037v.082c0 1.638.405 3.547.928 4.832l.001.005c.045.126.29.621.375.74.386.586 1.028 1.196 2.018 1.41 1.94.42 3.767-.32 3.77-.323.188-.064.617-.252.322-.546"/>
        <g transform="translate(117.621 24.217)">
            <mask id="d" fill="#fff">
                <use xlink:href="#c"/>
            </mask>
            <path fill="#FFF" d="M2.639.004a2.622 2.622 0 0 0-2.627 2.61c0 1.437 1.18 2.607 2.627 2.607a2.62 2.62 0 0 0 2.627-2.608c0-1.439-1.18-2.609-2.627-2.609m0 4.77a2.17 2.17 0 0 1-2.175-2.16A2.17 2.17 0 0 1 2.639.451c1.2 0 2.175.97 2.175 2.161a2.17 2.17 0 0 1-2.175 2.16" mask="url(#d)"/>
        </g>
        <path fill="#FFF" d="M121.252 26.394c0-.464-.34-.753-.89-.753h-1.068v2.374h.42v-.827h.528l.588.827h.497l-.647-.898c.335-.092.572-.33.572-.723zm-1.537.424v-.798h.613c.31 0 .495.136.495.398 0 .244-.191.4-.493.4h-.615zM67.658 7.953c-3.064 0-5.196.525-7.077 1.241-.296.134-.383.317-.383.317s-.16.244-.152.567c.017.33.141.805.372 1.364.16.388.363.73.556 1.012.263.383.574.51.574.51.27.115.47.109.616.079 1.32-.442 2.612-.776 4.811-.776 3.26 0 5.09 1.012 5.21 4.151 0 0 .091.919.053 2.113a40.114 40.114 0 0 1-.104 1.95c-.002.053-.002.108-.005.16-.003.025-.002.044-.002.044-.363 5.136-6.065 5.501-6.065 5.501-4.344 0-4.337-2.79-4.337-2.79 0-3.12 3.366-3.775 6.255-3.736.483.037.643-.345.694-.543.059-.304.106-.654.104-1.027-.002-.496-.053-.909-.134-1.203-.062-.168-.174-.384-.49-.436a23.383 23.383 0 0 0-1.896-.031c-4.939.15-8.523 2.235-8.523 6.788v.08c0 4.232 3.536 6.508 7.553 6.508 3.214 0 5.425-1.56 6.871-3.278v1.642c.021.175.078.431.379.716 0 0 .274.266.794.366.382.073.833.13 1.314.121.69-.012 1.246-.097 1.6-.229.342-.135.488-.36.488-.36s.238-.228.243-.605h.003v-11.31c0-5.631-3.053-8.906-9.322-8.906"/>
    </g>
</svg>
