<svg xmlns="http://www.w3.org/2000/svg" width="60" height="48" viewBox="0 0 60 48">
    <g fill="none" fill-rule="evenodd">
        <circle cx="21.642" cy="24.405" r="21.642" fill="#FFF"/>
        <circle cx="18.5" cy="24.5" r="1.5" fill="#0189FF"/>
        <circle cx="23.5" cy="24.5" r="1.5" fill="#0189FF"/>
        <circle cx="28.5" cy="24.5" r="1.5" fill="#0189FF"/>
        <path stroke="gray" stroke-linecap="round" stroke-width="2" d="M43.678 15.783C40.657 10.534 34.991 7 28.5 7 18.835 7 11 14.835 11 24.5S18.835 42 28.5 42c6.108 0 11.484-3.129 14.615-7.871"/>
        <path fill="#0189FF" d="M47 23h3a1 1 0 0 1 1 1v7.045h.237a.978.978 0 0 1 0 1.955h-4.26a.978.978 0 0 1 0-1.955H47v-5.922a1 1 0 0 1-1-1V24a1 1 0 0 1 1-1z"/>
        <circle cx="49" cy="18.5" r="2.5" fill="#0189FF"/>
    </g>
</svg>
