<?xml version="1.0" encoding="UTF-8"?>
<svg width="207px" height="149px" viewBox="0 0 207 149" version="1.1" xmlns="http://www.w3.org/2000/svg" xmlns:xlink="http://www.w3.org/1999/xlink">
    <!-- Generator: Sketch 50.2 (55047) - http://www.bohemiancoding.com/sketch -->
    <title>Logo</title>
    <desc>Created with Sketch.</desc>
    <defs>
        <polygon id="path-1" points="0.0549116953 0.0559406911 20.3313261 0.0559406911 20.3313261 10.8571429 0.0549116953 10.8571429"></polygon>
        <polygon id="path-3" points="0.014105042 0.00476470588 6.29281513 0.00476470588 6.29281513 6.28358824 0.014105042 6.28358824"></polygon>
    </defs>
    <g id="Page-1" stroke="none" stroke-width="1" fill="none" fill-rule="evenodd">
        <g id="1280_login" transform="translate(-40.000000, 0.000000)">
            <g id="Logo" transform="translate(40.000000, 0.000000)">
                <rect id="Rectangle-7" fill="#CC0000" x="0" y="0" width="207" height="149"></rect>
                <g id="logo-eclass-/-rojo" transform="translate(29.000000, 83.000000)">
                    <g id="Page-1">
                        <path d="M44.9655885,9.28571429 C40.9121084,9.28571429 37.6937073,10.6703864 34.213152,14.3537339 C32.8518947,15.7331638 21.0220456,28.2498804 18.8156121,29.9517015 C17.9397702,30.6264389 14.9457522,32.8412403 12.232213,33.7312796 L12.2344568,33.7324029 C12.2344568,33.731654 12.1843446,33.7518737 12.0934695,33.7870709 C10.9296693,34.2476297 9.47566706,34.569272 7.7991516,34.6276844 C7.7991516,34.6276844 7.2916719,34.6224423 7.2916719,34.7542445 C7.2916719,34.7542445 7.1989269,34.9017731 7.74529966,35.1024719 C9.33168793,35.6195709 11.2546508,36 12.8429089,36 C12.8754445,36 12.907606,36 12.9408895,35.9996256 L12.9408895,36 L13.7797082,36 L13.7797082,35.9831503 C17.3675934,35.854718 20.6865929,35.0904899 23.0538342,33.3377452 C25.123768,31.8040467 29.1054455,27.8900454 30.9218264,26.0163571 C32.7382073,24.1422945 37.459227,18.9578247 37.459227,18.9578247 C39.6080688,16.4947709 41.4113607,14.564917 44.8178696,14.564917 C47.051603,14.564917 49.1222847,15.6316911 50.8354494,17.1934724 C51.1282693,17.4660633 51.3773345,17.4746754 51.3773345,17.4746754 C51.3773345,17.4746754 51.7232584,17.5349599 52.0770357,17.3750748 C52.4334308,17.2002122 52.9031394,16.8385051 53.4128629,16.3221549 C53.7681361,15.9619455 54.0519807,15.5762742 54.2741199,15.2310423 C54.5751672,14.7611225 54.5714275,14.3574782 54.5714275,14.3574782 C54.5714275,13.8441236 54.3567677,13.6145931 54.2374707,13.4756765 C51.9038868,11.0826427 48.9603549,9.28571429 44.9655885,9.28571429" id="Fill-1" fill="#FFFFFF"></path>
                        <g id="Group-5" transform="translate(33.714286, 25.142857)">
                            <mask id="mask-2" fill="white">
                                <use xlink:href="#path-1"></use>
                            </mask>
                            <g id="Clip-4"></g>
                            <path d="M19.2732966,4.58324926 C18.933681,4.20811626 18.5652655,3.90336749 18.2331304,3.66226404 C17.780933,3.33505222 17.378481,3.31708177 17.378481,3.31708177 C16.9431148,3.2927468 16.7048603,3.43388966 16.5537538,3.54583054 C15.0393226,4.79964335 13.3386265,5.60419507 11.1909694,5.60419507 C7.86849662,5.60419507 5.34868364,3.30547586 4.51909403,1.03708177 C4.47271481,0.922520197 4.25615377,0.342973399 4.25615377,0.342973399 C4.06689662,-0.0385241379 3.81031481,0.0314857143 3.68239792,0.149416749 L0.415281039,3.58588966 C0.0846420779,3.95428374 -0.0739449351,4.34027389 0.181140779,4.8149931 C2.44512,8.32671724 6.10571221,10.8571803 10.9302732,10.8571803 C15.1803304,10.8571803 17.9133382,9.22186995 20.1810577,6.98941675 C20.2951356,6.81308177 20.3093486,6.68317044 20.3093486,6.68317044 C20.3093486,6.68317044 20.387894,6.34023448 20.2480083,5.97932808 C20.0939096,5.61243153 19.7606525,5.12236256 19.2732966,4.58324926" id="Fill-3" fill="#FFFFFF" mask="url(#mask-2)"></path>
                        </g>
                        <path d="M108.094062,20.3840502 C105.104299,19.4236179 102.356463,18.6527297 102.356463,16.8279456 L102.356463,16.7322389 C102.356463,15.2416807 103.658366,14.1851677 105.924224,14.1851677 C107.801875,14.1851677 109.269188,14.5092996 111.160717,15.5153423 C111.166343,15.5000142 111.160717,15.5153423 111.160717,15.5153423 C111.346007,15.6174046 111.59581,15.7486275 112.082289,15.6854461 C112.082289,15.6854461 112.465246,15.6405835 112.874083,15.2977589 C113.173772,15.0457809 113.504967,14.7295 113.801656,14.3504114 C114.228497,13.8030884 114.514308,13.3144605 114.634333,12.9559339 C114.743857,12.6022675 114.643335,12.2811264 114.643335,12.2811264 C114.643335,12.2811264 114.603577,12.0485889 114.309139,11.8048357 C111.592809,10.2791353 108.965749,9.57142857 106.06863,9.57142857 C101.007675,9.57142857 97.0051956,12.5017006 97.0051956,17.3083487 L97.0051956,17.4036817 C97.0051956,22.2578093 101.199716,23.7947254 104.960644,24.8527338 C107.948906,25.7664344 110.649108,26.4375033 110.649108,28.4084646 L110.649108,28.5041713 C110.649108,30.1857691 109.203174,31.2430298 106.695389,31.2430298 C104.332385,31.2430298 102.191803,30.6923421 99.8576794,29.1700063 L99.8569293,29.1722494 C99.6817669,29.0559807 99.4540933,28.882886 98.9668643,28.9083081 C98.9668643,28.9083081 98.5839075,28.92401 98.1506901,29.23244 C97.8341225,29.4593697 97.4819223,29.7476116 97.1574781,30.101278 C96.6916286,30.6115895 96.3713103,31.0744214 96.2235287,31.4206108 C96.0892501,31.7630615 96.1631408,32.0901843 96.1631408,32.0901843 C96.1631408,32.0901843 96.1845204,32.3148709 96.4433256,32.5735782 C99.5024786,34.7348315 103.192516,35.8571429 106.551358,35.8571429 C111.85424,35.8571429 116,33.2132434 116,27.8802081 L116,27.7833797 C116,23.2189894 111.80548,21.5358961 108.094062,20.3840502" id="Fill-6" fill="#FFFFFF"></path>
                        <path d="M130.379894,20.3840502 C127.390175,19.4236179 124.642379,18.6527297 124.642379,16.8279456 L124.642379,16.7322389 C124.642379,15.2416807 125.944263,14.1851677 128.209338,14.1851677 C130.086961,14.1851677 131.555002,14.5092996 133.446503,15.5153423 C133.452129,15.5000142 133.446503,15.5153423 133.446503,15.5153423 C133.63104,15.6174046 133.880839,15.7486275 134.368061,15.6854461 C134.368061,15.6854461 134.751012,15.6405835 135.159843,15.2977589 C135.459528,15.0457809 135.789969,14.7295 136.087403,14.3504114 C136.514237,13.8030884 136.800044,13.3144605 136.920068,12.9559339 C137.02884,12.6022675 136.92907,12.2811264 136.92907,12.2811264 C136.92907,12.2811264 136.889312,12.0485889 136.594878,11.8048357 C133.877839,10.2791353 131.250817,9.57142857 128.354492,9.57142857 C123.292861,9.57142857 119.291191,12.5017006 119.291191,17.3083487 L119.291191,17.4036817 C119.291191,22.2578093 123.48565,23.7947254 127.246147,24.8527338 C130.23399,25.7664344 132.934901,26.4375033 132.934901,28.4084646 L132.934901,28.5041713 C132.934901,30.1857691 131.488989,31.2430298 128.981241,31.2430298 C126.617522,31.2430298 124.477722,30.6923421 122.143633,29.1700063 L122.142883,29.1722494 C121.967723,29.0559807 121.740053,28.882886 121.252081,28.9083081 C121.252081,28.9083081 120.86913,28.9236361 120.435919,29.23244 C120.119731,29.4593697 119.767911,29.7476116 119.443472,30.101278 C118.977629,30.6115895 118.657316,31.0744214 118.509536,31.4206108 C118.374509,31.7630615 118.449149,32.0901843 118.449149,32.0901843 C118.449149,32.0901843 118.470528,32.3148709 118.72933,32.5735782 C121.787687,34.7348315 125.47767,35.8571429 128.837213,35.8571429 C134.139266,35.8571429 138.285714,33.2132434 138.285714,27.8802081 L138.285714,27.7833797 C138.285714,23.2189894 134.091256,21.5358961 130.379894,20.3840502" id="Fill-8" fill="#FFFFFF"></path>
                        <path d="M63.9860803,0.296569543 C63.6689901,0.173683674 63.2159502,0.0791848149 62.6619838,0.0261459295 C62.4333926,0.0104583718 62.1893612,0 61.9280065,0 C61.400025,0 60.4762455,0.103089665 60.4378331,0.10943939 C59.8025229,0.220372834 59.4624606,0.537485607 59.4624606,0.537485607 C59.1359555,0.836296229 59.0387949,1.11306957 59.0000059,1.32036944 L59.0000059,2.63513618 L59.0000059,34.0707607 C58.9984996,34.5283144 59.2847093,34.8099435 59.2847093,34.8099435 C59.2847093,34.8099435 59.4568117,35.0852227 59.8699328,35.2577859 C60.2981176,35.4243728 60.9748529,35.5390414 61.8146524,35.5674284 C62.399876,35.5879716 62.9504531,35.5267154 63.41818,35.444916 C64.05462,35.3343561 64.3931759,35.0176168 64.3931759,35.0176168 C64.7204342,34.7173122 64.8179714,34.4409123 64.8571369,34.233239 L64.8571369,31.9350118 L64.8571369,1.48620933 C64.8586433,1.02716151 64.5716804,0.744411963 64.5716804,0.744411963 C64.5716804,0.744411963 64.4003312,0.46950619 63.9860803,0.296569543" id="Fill-10" fill="#FFFFFF"></path>
                        <path d="M8.86016177,30.3713456 C7.96858256,29.6504885 7.29280434,28.6927142 6.90787211,27.97298 C6.48037705,27.1731505 6.13464743,26.0757709 5.97895709,25.0386499 L5.98306403,25.0386499 C5.9520753,24.7987385 5.92183329,24.5562072 5.89756501,24.309933 L5.9012986,24.309933 C5.77062325,23.1358268 5.77958385,21.7240547 6.10925907,20.1457295 C6.12344668,20.0757398 6.14286131,20.009867 6.16115585,19.9424972 L6.14286131,19.9424972 C6.87277645,16.9359318 8.8063982,14.7950686 11.4856161,14.3006489 C11.8750287,14.2284135 12.2804956,14.1906116 12.6997768,14.1906116 C17.0363315,14.1906116 18.8515987,16.7154828 19.1133227,19.6767607 C19.1151895,19.7924122 19.1017486,19.9847905 19.0057956,20.1442324 C18.850852,20.4013606 18.4886946,20.3774069 18.4886946,20.3774069 L15.1378054,20.3774069 L14.5105637,20.3774069 L14.5105637,20.3740384 L12.3600209,20.3740384 C11.5046574,20.3740384 10.8796559,20.9231024 10.8748022,22.9943501 C10.8703219,24.9244955 11.5169782,25.6184047 12.3775687,25.6184047 L14.5273648,25.6184047 L16.8164235,25.6221475 C17.2319711,25.6221475 17.4877214,25.4211608 17.6628264,25.2886668 C17.727044,25.2328996 17.7976087,25.1692725 17.8737737,25.102277 C17.8842278,25.0910487 17.8909482,25.0824403 17.8909482,25.0824403 C17.8909482,25.0824403 17.8931884,25.0835632 17.8939351,25.0835632 C19.308589,23.8147649 22.4742926,20.4036062 23.8120348,19.1149713 C24.462798,18.4622325 24.2537175,17.6769998 24.2537175,17.6769998 C23.198234,13.2085093 19.8331572,9.28571429 12.7498068,9.28571429 C9.30184444,9.28571429 6.31983306,10.5986773 4.1080595,12.7474003 C1.53188841,15.2494406 0,18.8851653 0,22.9097636 L0,23.0085727 C0,24.9795142 0.483872136,27.2771994 1.109247,28.8237111 C1.10999372,28.8255825 1.109247,28.8274539 1.11036708,28.8293252 C1.16450401,28.9805331 1.45684342,29.5771303 1.55877019,29.720104 C2.02024084,30.4248672 2.7874918,31.1591982 3.96991699,31.4163264 C6.28847098,31.9216001 8.47186932,31.0308213 8.47634961,31.0285756 C8.69999113,30.9511003 9.21335856,30.7250372 8.86016177,30.3713456" id="Fill-12" fill="#FFFFFF"></path>
                        <g id="Group-16" transform="translate(140.571429, 29.142857)">
                            <mask id="mask-4" fill="white">
                                <use xlink:href="#path-3"></use>
                            </mask>
                            <g id="Clip-15"></g>
                            <path d="M3.15389496,0.00476470588 C1.42347479,0.00476470588 0.014105042,1.413 0.014105042,3.14493277 C0.014105042,4.87535294 1.42347479,6.28358824 3.15389496,6.28358824 C4.88431513,6.28358824 6.29292857,4.87535294 6.29292857,3.14493277 C6.29292857,1.413 4.88431513,0.00476470588 3.15389496,0.00476470588 M3.15389496,5.74434454 C1.72032353,5.74434454 0.554105042,4.57812605 0.554105042,3.14493277 C0.554105042,1.71098319 1.72032353,0.544386555 3.15389496,0.544386555 C4.58746639,0.544386555 5.75292857,1.71098319 5.75292857,3.14493277 C5.75292857,4.57812605 4.58746639,5.74434454 3.15389496,5.74434454" id="Fill-14" fill="#FFFFFF" mask="url(#mask-4)"></path>
                        </g>
                        <path d="M144.910618,31.7634109 C144.910618,31.2048493 144.505422,30.8571429 143.846605,30.8571429 L142.571429,30.8571429 L142.571429,33.7142857 L143.073827,33.7142857 L143.073827,32.7187669 L143.703967,32.7187669 L144.406357,33.7142857 L145,33.7142857 L144.22685,32.6328629 C144.627577,32.5227869 144.910618,32.2364404 144.910618,31.7634109 Z M143.073827,32.2740001 L143.073827,31.3138097 L143.806384,31.3138097 C144.178062,31.3138097 144.398537,31.4774363 144.398537,31.7920455 C144.398537,32.0858296 144.169496,32.2740001 143.809363,32.2740001 L143.073827,32.2740001 Z" id="Fill-17" fill="#FFFFFF"></path>
                        <path d="M80.8595559,9.57142857 C77.1982491,9.57142857 74.6501649,10.202522 72.4016794,11.0642935 C72.0479137,11.2261795 71.9440628,11.4452676 71.9440628,11.4452676 C71.9440628,11.4452676 71.7531712,11.7398776 71.7625104,12.128329 C71.7830564,12.5242579 71.930988,13.0974014 72.2066787,13.7696206 C72.3979438,14.2365849 72.6403872,14.648964 72.8708766,14.9876907 C73.185418,15.4486731 73.5574883,15.6023338 73.5574883,15.6023338 C73.8798746,15.7391705 74.1197031,15.7320669 74.2941578,15.6958015 C75.8702269,15.1641576 77.4156637,14.7622468 80.0436908,14.7622468 C83.9392227,14.7622468 86.1260699,15.9803169 86.271013,19.7579046 C86.271013,19.7579046 86.3789732,20.8638136 86.3337719,22.3009719 C86.2908119,23.6827973 86.2090013,24.6470093 86.2090013,24.6470093 C86.2067599,24.7109412 86.2067599,24.7771163 86.2033978,24.8399265 C86.198915,24.8698362 86.2004093,24.8930161 86.2004093,24.8930161 C85.7663272,31.0742174 78.9525086,31.5135152 78.9525086,31.5135152 C73.7603339,31.5135152 73.7689259,28.1542886 73.7689259,28.1542886 C73.7689259,24.4010025 77.7914697,23.6121358 81.2439539,23.6596173 C81.8211113,23.7044818 82.0131235,23.2438733 82.0743881,23.0053439 C82.1442447,22.6396985 82.2006529,22.2190942 82.1984115,21.7697019 C82.195423,21.1733784 82.1349056,20.6765045 82.0377788,20.3224491 C81.9634394,20.1201851 81.8300768,19.860719 81.4512823,19.797161 C80.5991814,19.7504272 79.8102129,19.7418282 79.1859865,19.7601478 C73.2836655,19.9399796 69,22.4505201 69,27.9288447 L69,28.0256772 C69,33.1185413 73.2261365,35.8571429 78.027189,35.8571429 C81.868554,35.8571429 84.510403,33.9791913 86.2388865,31.9124351 L86.2388865,33.6195278 L86.2388865,33.8879669 C86.2639153,34.0995776 86.3322776,34.4076469 86.6912732,34.7501123 C86.6912732,34.7501123 87.0188894,35.0701454 87.6405009,35.1901579 C88.0973704,35.2783913 88.6364242,35.3479312 89.210593,35.3367151 C90.0350501,35.3221342 90.6999951,35.2196936 91.123991,35.0611725 C91.5322971,34.8977911 91.7060046,34.6282305 91.7060046,34.6282305 C91.7060046,34.6282305 91.9906609,34.3526879 91.9970115,33.899183 L92,33.899183 L92,33.6195278 L92,20.288053 C92,13.5116499 88.3513944,9.57142857 80.8595559,9.57142857" id="Fill-19" fill="#FFFFFF"></path>
                    </g>
                </g>
            </g>
        </g>
    </g>
</svg>