<svg xmlns="http://www.w3.org/2000/svg" width="30" height="23" viewBox="0 0 30 23">
    <path fill="#0189FF" fill-rule="nonzero" d="M11.751 21.415c-2.785 2.532-7.53 1.863-9.75-.819-2.629-3.167-3.154-9.17 1.426-14.538A22.147 22.147 0 0 1 11.637 0l1.476 2.325C8.56 4.482 5.156 7.408 4.674 12.312c2.054 0 3.759-.073 5.277.458 1.728.605 2.778 1.727 3.21 3.013.683 2.013.351 4.03-1.41 5.632zm16.509 0c-2.786 2.532-7.53 1.863-9.75-.819-2.629-3.167-3.154-9.17 1.426-14.538A22.147 22.147 0 0 1 28.146 0l1.476 2.325c-4.553 2.157-7.957 5.083-8.439 9.987 2.054 0 3.759-.073 5.277.458 1.728.605 2.778 1.727 3.21 3.013.683 2.013.351 4.03-1.41 5.632z"/>
</svg>
