<svg xmlns="http://www.w3.org/2000/svg" xmlns:xlink="http://www.w3.org/1999/xlink" width="43" height="41" viewBox="0 0 43 41">
    <defs>
        <circle id="a" cx="20.664" cy="20.459" r="20.459"/>
    </defs>
    <g fill="none" fill-rule="evenodd">
        <use fill="#FFF" xlink:href="#a"/>
        <circle cx="34" cy="28" r="9" fill="#0189FF"/>
        <path fill="#FFF" d="M34.912 29.568h-1.996v-6.521h1.996v6.521zm0 3.432h-1.996v-1.75h1.996V33z"/>
        <path stroke="#60798E" stroke-linecap="round" stroke-width="2" d="M24 36a2 2 0 0 1-2 2H5a2 2 0 0 1-2-2V13a2 2 0 0 1 2-2"/>
        <path stroke="#60798E" stroke-linecap="round" stroke-width="2" d="M22.058 32H11a2 2 0 0 1-2-2V7a2 2 0 0 1 2-2h17a2 2 0 0 1 2 2v10.009M13.5 10H21M13.5 15.25H21M13.5 20.25H21M13.5 25.25H21"/>
    </g>
</svg>
