<svg width="111" height="106" viewBox="0 0 111 106" version="1.1" xmlns="http://www.w3.org/2000/svg" xmlns:xlink="http://www.w3.org/1999/xlink" id="el_fWOUGtp_6"><style>@-webkit-keyframes kf_el_CgSJib54ay_an_EA2t4Traf{0%{-webkit-transform: translate(17.000049591064453px, 12.000027656555176px) scale(1, 1) translate(-17.000049591064453px, -12.000027656555176px);transform: translate(17.000049591064453px, 12.000027656555176px) scale(1, 1) translate(-17.000049591064453px, -12.000027656555176px);}25%{-webkit-transform: translate(17.000049591064453px, 12.000027656555176px) scale(1.05, 1.05) translate(-17.000049591064453px, -12.000027656555176px);transform: translate(17.000049591064453px, 12.000027656555176px) scale(1.05, 1.05) translate(-17.000049591064453px, -12.000027656555176px);}50%{-webkit-transform: translate(17.000049591064453px, 12.000027656555176px) scale(1, 1) translate(-17.000049591064453px, -12.000027656555176px);transform: translate(17.000049591064453px, 12.000027656555176px) scale(1, 1) translate(-17.000049591064453px, -12.000027656555176px);}75%{-webkit-transform: translate(17.000049591064453px, 12.000027656555176px) scale(1.05, 1.05) translate(-17.000049591064453px, -12.000027656555176px);transform: translate(17.000049591064453px, 12.000027656555176px) scale(1.05, 1.05) translate(-17.000049591064453px, -12.000027656555176px);}100%{-webkit-transform: translate(17.000049591064453px, 12.000027656555176px) scale(1, 1) translate(-17.000049591064453px, -12.000027656555176px);transform: translate(17.000049591064453px, 12.000027656555176px) scale(1, 1) translate(-17.000049591064453px, -12.000027656555176px);}}@keyframes kf_el_CgSJib54ay_an_EA2t4Traf{0%{-webkit-transform: translate(17.000049591064453px, 12.000027656555176px) scale(1, 1) translate(-17.000049591064453px, -12.000027656555176px);transform: translate(17.000049591064453px, 12.000027656555176px) scale(1, 1) translate(-17.000049591064453px, -12.000027656555176px);}25%{-webkit-transform: translate(17.000049591064453px, 12.000027656555176px) scale(1.05, 1.05) translate(-17.000049591064453px, -12.000027656555176px);transform: translate(17.000049591064453px, 12.000027656555176px) scale(1.05, 1.05) translate(-17.000049591064453px, -12.000027656555176px);}50%{-webkit-transform: translate(17.000049591064453px, 12.000027656555176px) scale(1, 1) translate(-17.000049591064453px, -12.000027656555176px);transform: translate(17.000049591064453px, 12.000027656555176px) scale(1, 1) translate(-17.000049591064453px, -12.000027656555176px);}75%{-webkit-transform: translate(17.000049591064453px, 12.000027656555176px) scale(1.05, 1.05) translate(-17.000049591064453px, -12.000027656555176px);transform: translate(17.000049591064453px, 12.000027656555176px) scale(1.05, 1.05) translate(-17.000049591064453px, -12.000027656555176px);}100%{-webkit-transform: translate(17.000049591064453px, 12.000027656555176px) scale(1, 1) translate(-17.000049591064453px, -12.000027656555176px);transform: translate(17.000049591064453px, 12.000027656555176px) scale(1, 1) translate(-17.000049591064453px, -12.000027656555176px);}}@-webkit-keyframes kf_el_CgSJib54ay_an_LMRkwdE4-{0%{-webkit-transform: translate(17.000049591064453px, 12.000027656555176px) translate(-17.000049591064453px, -12.000027656555176px) translate(0px, 0px);transform: translate(17.000049591064453px, 12.000027656555176px) translate(-17.000049591064453px, -12.000027656555176px) translate(0px, 0px);}25%{-webkit-transform: translate(17.000049591064453px, 12.000027656555176px) translate(-17.000049591064453px, -12.000027656555176px) translate(-2px, 0px);transform: translate(17.000049591064453px, 12.000027656555176px) translate(-17.000049591064453px, -12.000027656555176px) translate(-2px, 0px);}50%{-webkit-transform: translate(17.000049591064453px, 12.000027656555176px) translate(-17.000049591064453px, -12.000027656555176px) translate(0px, 0px);transform: translate(17.000049591064453px, 12.000027656555176px) translate(-17.000049591064453px, -12.000027656555176px) translate(0px, 0px);}75%{-webkit-transform: translate(17.000049591064453px, 12.000027656555176px) translate(-17.000049591064453px, -12.000027656555176px) translate(-2px, 0px);transform: translate(17.000049591064453px, 12.000027656555176px) translate(-17.000049591064453px, -12.000027656555176px) translate(-2px, 0px);}100%{-webkit-transform: translate(17.000049591064453px, 12.000027656555176px) translate(-17.000049591064453px, -12.000027656555176px) translate(0px, 0px);transform: translate(17.000049591064453px, 12.000027656555176px) translate(-17.000049591064453px, -12.000027656555176px) translate(0px, 0px);}}@keyframes kf_el_CgSJib54ay_an_LMRkwdE4-{0%{-webkit-transform: translate(17.000049591064453px, 12.000027656555176px) translate(-17.000049591064453px, -12.000027656555176px) translate(0px, 0px);transform: translate(17.000049591064453px, 12.000027656555176px) translate(-17.000049591064453px, -12.000027656555176px) translate(0px, 0px);}25%{-webkit-transform: translate(17.000049591064453px, 12.000027656555176px) translate(-17.000049591064453px, -12.000027656555176px) translate(-2px, 0px);transform: translate(17.000049591064453px, 12.000027656555176px) translate(-17.000049591064453px, -12.000027656555176px) translate(-2px, 0px);}50%{-webkit-transform: translate(17.000049591064453px, 12.000027656555176px) translate(-17.000049591064453px, -12.000027656555176px) translate(0px, 0px);transform: translate(17.000049591064453px, 12.000027656555176px) translate(-17.000049591064453px, -12.000027656555176px) translate(0px, 0px);}75%{-webkit-transform: translate(17.000049591064453px, 12.000027656555176px) translate(-17.000049591064453px, -12.000027656555176px) translate(-2px, 0px);transform: translate(17.000049591064453px, 12.000027656555176px) translate(-17.000049591064453px, -12.000027656555176px) translate(-2px, 0px);}100%{-webkit-transform: translate(17.000049591064453px, 12.000027656555176px) translate(-17.000049591064453px, -12.000027656555176px) translate(0px, 0px);transform: translate(17.000049591064453px, 12.000027656555176px) translate(-17.000049591064453px, -12.000027656555176px) translate(0px, 0px);}}@-webkit-keyframes kf_el_4S3AFCQfVE_an_o4gP4wB3F{0%{-webkit-transform: translate(16.5px, 29px) scale(1, 1) translate(-16.5px, -29px);transform: translate(16.5px, 29px) scale(1, 1) translate(-16.5px, -29px);}25%{-webkit-transform: translate(16.5px, 29px) scale(1.03, 1.03) translate(-16.5px, -29px);transform: translate(16.5px, 29px) scale(1.03, 1.03) translate(-16.5px, -29px);}50%{-webkit-transform: translate(16.5px, 29px) scale(1, 1) translate(-16.5px, -29px);transform: translate(16.5px, 29px) scale(1, 1) translate(-16.5px, -29px);}75%{-webkit-transform: translate(16.5px, 29px) scale(1.03, 1.03) translate(-16.5px, -29px);transform: translate(16.5px, 29px) scale(1.03, 1.03) translate(-16.5px, -29px);}100%{-webkit-transform: translate(16.5px, 29px) scale(1, 1) translate(-16.5px, -29px);transform: translate(16.5px, 29px) scale(1, 1) translate(-16.5px, -29px);}}@keyframes kf_el_4S3AFCQfVE_an_o4gP4wB3F{0%{-webkit-transform: translate(16.5px, 29px) scale(1, 1) translate(-16.5px, -29px);transform: translate(16.5px, 29px) scale(1, 1) translate(-16.5px, -29px);}25%{-webkit-transform: translate(16.5px, 29px) scale(1.03, 1.03) translate(-16.5px, -29px);transform: translate(16.5px, 29px) scale(1.03, 1.03) translate(-16.5px, -29px);}50%{-webkit-transform: translate(16.5px, 29px) scale(1, 1) translate(-16.5px, -29px);transform: translate(16.5px, 29px) scale(1, 1) translate(-16.5px, -29px);}75%{-webkit-transform: translate(16.5px, 29px) scale(1.03, 1.03) translate(-16.5px, -29px);transform: translate(16.5px, 29px) scale(1.03, 1.03) translate(-16.5px, -29px);}100%{-webkit-transform: translate(16.5px, 29px) scale(1, 1) translate(-16.5px, -29px);transform: translate(16.5px, 29px) scale(1, 1) translate(-16.5px, -29px);}}@-webkit-keyframes kf_el_4S3AFCQfVE_an_dqKH8KwN9{0%{-webkit-transform: translate(16.5px, 29px) translate(-16.5px, -29px) translate(0px, 0px);transform: translate(16.5px, 29px) translate(-16.5px, -29px) translate(0px, 0px);}25%{-webkit-transform: translate(16.5px, 29px) translate(-16.5px, -29px) translate(-1px, 0px);transform: translate(16.5px, 29px) translate(-16.5px, -29px) translate(-1px, 0px);}50%{-webkit-transform: translate(16.5px, 29px) translate(-16.5px, -29px) translate(0px, 0px);transform: translate(16.5px, 29px) translate(-16.5px, -29px) translate(0px, 0px);}75%{-webkit-transform: translate(16.5px, 29px) translate(-16.5px, -29px) translate(-1px, 0px);transform: translate(16.5px, 29px) translate(-16.5px, -29px) translate(-1px, 0px);}100%{-webkit-transform: translate(16.5px, 29px) translate(-16.5px, -29px) translate(0px, 0px);transform: translate(16.5px, 29px) translate(-16.5px, -29px) translate(0px, 0px);}}@keyframes kf_el_4S3AFCQfVE_an_dqKH8KwN9{0%{-webkit-transform: translate(16.5px, 29px) translate(-16.5px, -29px) translate(0px, 0px);transform: translate(16.5px, 29px) translate(-16.5px, -29px) translate(0px, 0px);}25%{-webkit-transform: translate(16.5px, 29px) translate(-16.5px, -29px) translate(-1px, 0px);transform: translate(16.5px, 29px) translate(-16.5px, -29px) translate(-1px, 0px);}50%{-webkit-transform: translate(16.5px, 29px) translate(-16.5px, -29px) translate(0px, 0px);transform: translate(16.5px, 29px) translate(-16.5px, -29px) translate(0px, 0px);}75%{-webkit-transform: translate(16.5px, 29px) translate(-16.5px, -29px) translate(-1px, 0px);transform: translate(16.5px, 29px) translate(-16.5px, -29px) translate(-1px, 0px);}100%{-webkit-transform: translate(16.5px, 29px) translate(-16.5px, -29px) translate(0px, 0px);transform: translate(16.5px, 29px) translate(-16.5px, -29px) translate(0px, 0px);}}#el_fWOUGtp_6 *{-webkit-animation-duration: 2s;animation-duration: 2s;-webkit-animation-iteration-count: infinite;animation-iteration-count: infinite;-webkit-animation-timing-function: cubic-bezier(0, 0, 1, 1);animation-timing-function: cubic-bezier(0, 0, 1, 1);}#el_my62eFN1An{stroke: none;stroke-width: 1;fill: none;}#el_SqoVc3c2E0{-webkit-transform: translate(-26px, -1px);transform: translate(-26px, -1px);}#el_1UnAdpElSE{-webkit-transform: translate(26px, 6px);transform: translate(26px, 6px);}#el_GZ3w2VvybV{fill: #93CDFF;}#el_fUhICKWcgk{fill: #BEE1FF;}#el_DFrbt1VipV{fill: #D8EDFF;}#el_XreHy8j8w0{fill: #E7F4FF;}#el_7aU493i7Tq{fill: #999999;}#el_pLibh33ojF{fill: url(#linearGradient-1);}#el_dsu1g7eMJP{fill: url(#linearGradient-2);}#el_vh0XGbpKVN{fill: url(#linearGradient-3);}#el_ryqJ8JnTDm{-webkit-transform: translate(90.682703209985px, 0.729836670574997px) rotate(6deg);transform: translate(90.682703209985px, 0.729836670574997px) rotate(6deg);}#el_4S3AFCQfVE{fill: url(#linearGradient-4);}#el_CgSJib54ay{fill: #0189FF;}#el_XiM917bn2Rm{stroke: #005580;stroke-width: 2;}#el_XSQcuVlvQNp{fill: #005580;}#el_6MQDy3UJ4Ge{-webkit-transform: translate(44px, 30px);transform: translate(44px, 30px);}#el_1_-_w0FjxK2{fill: url(#linearGradient-5);}#el_U6Rf6qR9C6p{fill: url(#linearGradient-6);-webkit-transform: translate(36.50308507010361px, 11.54734738046156px) rotate(114deg);transform: translate(36.50308507010361px, 11.54734738046156px) rotate(114deg);}#el_1odjf3RJBom{fill: url(#linearGradient-7);}#el_PZodI5xH9H4{fill: #2F2F2F;}#el_FKcHEYN_f9k{fill: #222222;}#el_nmT0O5jeMEn{fill: url(#linearGradient-8);}#el_bpmju0Zyybx{fill: url(#linearGradient-9);}#el_qtpYOsCSOAr{-webkit-transform: translate(59.956923313375px, 18.282882675675px) rotate(-12deg);transform: translate(59.956923313375px, 18.282882675675px) rotate(-12deg);}#el_yyk4FtYzv1v{fill: url(#linearGradient-10);}#el_uC1f018Evlc{fill: #0189FF;-webkit-transform: translate(-0.8369213628750991px, 0.8865906726048962px) rotate(-7deg);transform: translate(-0.8369213628750991px, 0.8865906726048962px) rotate(-7deg);}#el_2qZdfO8Qqi9{fill: url(#linearGradient-11);}#el_4S3AFCQfVE_an_dqKH8KwN9{-webkit-animation-fill-mode: backwards;animation-fill-mode: backwards;-webkit-transform: translate(16.5px, 29px) translate(-16.5px, -29px) translate(0px, 0px);transform: translate(16.5px, 29px) translate(-16.5px, -29px) translate(0px, 0px);-webkit-animation-name: kf_el_4S3AFCQfVE_an_dqKH8KwN9;animation-name: kf_el_4S3AFCQfVE_an_dqKH8KwN9;-webkit-animation-timing-function: cubic-bezier(0, 0, 1, 1);animation-timing-function: cubic-bezier(0, 0, 1, 1);}#el_4S3AFCQfVE_an_o4gP4wB3F{-webkit-animation-fill-mode: backwards;animation-fill-mode: backwards;-webkit-transform: translate(16.5px, 29px) scale(1, 1) translate(-16.5px, -29px);transform: translate(16.5px, 29px) scale(1, 1) translate(-16.5px, -29px);-webkit-animation-name: kf_el_4S3AFCQfVE_an_o4gP4wB3F;animation-name: kf_el_4S3AFCQfVE_an_o4gP4wB3F;-webkit-animation-timing-function: cubic-bezier(0, 0, 1, 1);animation-timing-function: cubic-bezier(0, 0, 1, 1);}#el_CgSJib54ay_an_LMRkwdE4-{-webkit-animation-fill-mode: backwards;animation-fill-mode: backwards;-webkit-transform: translate(17.000049591064453px, 12.000027656555176px) translate(-17.000049591064453px, -12.000027656555176px) translate(0px, 0px);transform: translate(17.000049591064453px, 12.000027656555176px) translate(-17.000049591064453px, -12.000027656555176px) translate(0px, 0px);-webkit-animation-name: kf_el_CgSJib54ay_an_LMRkwdE4-;animation-name: kf_el_CgSJib54ay_an_LMRkwdE4-;-webkit-animation-timing-function: cubic-bezier(0, 0, 1, 1);animation-timing-function: cubic-bezier(0, 0, 1, 1);}#el_CgSJib54ay_an_EA2t4Traf{-webkit-animation-fill-mode: backwards;animation-fill-mode: backwards;-webkit-transform: translate(17.000049591064453px, 12.000027656555176px) scale(1, 1) translate(-17.000049591064453px, -12.000027656555176px);transform: translate(17.000049591064453px, 12.000027656555176px) scale(1, 1) translate(-17.000049591064453px, -12.000027656555176px);-webkit-animation-name: kf_el_CgSJib54ay_an_EA2t4Traf;animation-name: kf_el_CgSJib54ay_an_EA2t4Traf;-webkit-animation-timing-function: cubic-bezier(0, 0, 1, 1);animation-timing-function: cubic-bezier(0, 0, 1, 1);}</style>
    <!-- Generator: Sketch 53.2 (72643) - https://sketchapp.com -->
    <title>Actividad disponible masculino</title>
    <desc>Created with Sketch.</desc>
    <defs>
        <linearGradient x1="50%" y1="0%" x2="50%" y2="88.7308881%" id="linearGradient-1">
            <stop stop-color="#A3A3A3" offset="0%"/>
            <stop stop-color="#575757" offset="100%"/>
        </linearGradient>
        <linearGradient x1="50%" y1="23.1164455%" x2="50%" y2="88.7308881%" id="linearGradient-2">
            <stop stop-color="#A3A3A3" offset="0%"/>
            <stop stop-color="#575757" offset="100%"/>
        </linearGradient>
        <linearGradient x1="50%" y1="23.1164455%" x2="50%" y2="134.885056%" id="linearGradient-3">
            <stop stop-color="#A3A3A3" offset="0%"/>
            <stop stop-color="#575757" offset="100%"/>
        </linearGradient>
        <linearGradient x1="130.322944%" y1="25.1347802%" x2="29.85663%" y2="25.1347802%" id="linearGradient-4">
            <stop stop-color="#00559F" offset="0%"/>
            <stop stop-color="#0189FF" offset="100%"/>
        </linearGradient>
        <linearGradient x1="45.3472276%" y1="45.3229518%" x2="59.8897154%" y2="75.296077%" id="linearGradient-5">
            <stop stop-color="#00559F" offset="0%"/>
            <stop stop-color="#0189FF" offset="100%"/>
        </linearGradient>
        <linearGradient x1="59.5969041%" y1="33.8769985%" x2="89.3934846%" y2="33.8769985%" id="linearGradient-6">
            <stop stop-color="#FEB195" offset="0%"/>
            <stop stop-color="#FCC5A6" offset="100%"/>
        </linearGradient>
        <linearGradient x1="27.4845962%" y1="21.1904792%" x2="82.6875499%" y2="75.296077%" id="linearGradient-7">
            <stop stop-color="#00559F" offset="0%"/>
            <stop stop-color="#0189FF" offset="100%"/>
        </linearGradient>
        <linearGradient x1="59.5969041%" y1="33.8769985%" x2="89.3934846%" y2="33.8769985%" id="linearGradient-8">
            <stop stop-color="#FEB195" offset="0%"/>
            <stop stop-color="#FCC5A6" offset="100%"/>
        </linearGradient>
        <linearGradient x1="50%" y1="0%" x2="50%" y2="100%" id="linearGradient-9">
            <stop stop-color="#900000" offset="0%"/>
            <stop stop-color="#CC0000" offset="100%"/>
        </linearGradient>
        <linearGradient x1="43.5108277%" y1="45.5898505%" x2="56.4891723%" y2="96.7031026%" id="linearGradient-10">
            <stop stop-color="#FEB195" offset="0%"/>
            <stop stop-color="#FCC5A6" offset="100%"/>
        </linearGradient>
        <linearGradient x1="95.6755545%" y1="50%" x2="43.0835026%" y2="67.4418462%" id="linearGradient-11">
            <stop stop-color="#900000" offset="0%"/>
            <stop stop-color="#CC0000" offset="100%"/>
        </linearGradient>
    </defs>
    <g id="el_my62eFN1An" fill-rule="evenodd">
        <g id="el_SqoVc3c2E0">
            <g id="el_1UnAdpElSE">
                <circle id="el_GZ3w2VvybV" cx="50" cy="50" r="50"/>
                <path d="M84.4113362,13.7250671 C83.8721035,16.6250083 80.8966668,19.1246053 75.4850261,21.2238584 C47.3678733,32.1309049 54.4135044,52.9842065 34.7241118,63.3187907 C23.0569367,69.4426668 11.9412746,68.9041052 1.37712536,61.7031058 C0.476820569,57.9489955 1.37134748e-12,54.0301815 1.37134748e-12,50 C1.37134748e-12,22.3857625 22.3857625,2.84217094e-14 50,2.84217094e-14 C63.3331158,2.84217094e-14 75.44732,5.21878114 84.4113362,13.7250671 Z" id="el_fUhICKWcgk"/>
                <path d="M2.58970276e-12,48.5176343 C0.784049141,21.5890633 22.8600499,-2.13162821e-14 49.9784467,-2.13162821e-14 C59.5744489,-2.13162821e-14 68.5390729,2.70325154 76.1523385,7.38977455 C74.7453053,8.68187049 72.6625874,9.86293041 69.9041848,10.9329543 C43.565244,21.1502069 50.1652885,40.684684 31.7211113,50.3656785 C20.6138092,56.1956881 10.0401054,55.5796734 2.53397303e-12,48.5176343 Z" id="el_DFrbt1VipV"/>
                <path d="M2.6,34.0615856 C9.25410068,14.2622427 27.964469,3.90798505e-14 50.0059626,3.90798505e-14 C53.8901464,3.90798505e-14 57.6708855,0.442899641 61.3004325,1.28095163 C42.5109744,10.9990721 46.6582553,27.0535391 30.9527476,35.2970586 C21.0369043,40.5016944 11.5859884,40.08987 2.6,34.0615856 Z" id="el_XreHy8j8w0"/>
            </g>
            <path d="M35,84.9786169 C36.4345055,83.1784258 38.5313502,81.404823 41.4325915,81.404823 C45.4747065,81.404823 44.7823043,88.404823 51.5690072,88.404823 C55.0682817,88.404823 57.9575251,81.404823 64.215921,81.404823 C69.2282623,81.404823 76.5734444,87.173357 87.0362838,85.404823 C91.8665207,84.5883679 95.7354968,79.1275826 99.9827658,78.07628 C103.309549,77.25282 108.191053,83.3335353 112.375547,84.904823 C113.885825,85.4719358 115.124125,85.9185767 116.141595,86.2690171 C107.025987,98.4906948 92.4553574,106.404823 76.0362838,106.404823 C59.0462815,106.404823 44.035507,97.9307411 35,84.9786169 Z" id="el_7aU493i7Tq"/>
            <path d="M42,92.8637165 C56.9554868,86.8983994 58.7242126,75.6220332 75.0200109,75.0156408 C91.1563958,74.4151804 99.0386984,91.2953658 109.790024,92.6517056 C100.867372,100.935065 88.9152307,106 75.7801111,106 C62.7574296,106 50.8975608,101.021407 42,92.8637165 Z" id="el_pLibh33ojF"/>
            <path d="M53,100.51875 C65.284282,94.3512018 67.8854877,84.5789868 83.024485,84.0156408 C93.2013555,83.6369433 100.095121,90.2112659 106.496075,95.459243 C98.0210089,102.064911 87.3623417,106 75.7845852,106 C67.577799,106 59.8328142,104.022794 53,100.51875 Z" id="el_dsu1g7eMJP"/>
            <path d="M45,95.1786277 C49.4412051,91.4255567 53.9755144,88.3257088 62.3080836,88.0156408 C75.5250725,87.5238157 83.2044643,98.7596148 91.4585621,103.586604 C86.6102632,105.153479 81.4380813,106 76.0681838,106 C64.3274083,106 53.5317867,101.953316 45,95.1786277 Z" id="el_vh0XGbpKVN"/>
            <g id="el_xrQ-28LBBe">
                <g id="el_ryqJ8JnTDm">
                    <g id="el_4S3AFCQfVE_an_dqKH8KwN9" data-animator-group="true" data-animator-type="0"><g id="el_4S3AFCQfVE_an_o4gP4wB3F" data-animator-group="true" data-animator-type="2"><rect id="el_4S3AFCQfVE" x="3" y="7" width="27" height="22"/></g></g>
                    <g id="el_CgSJib54ay_an_LMRkwdE4-" data-animator-group="true" data-animator-type="0"><g id="el_CgSJib54ay_an_EA2t4Traf" data-animator-group="true" data-animator-type="2"><polygon id="el_CgSJib54ay" points="17.0000505 12.0000281 47.0000322 12.0000281 39.5258676 23.000014 47.0000322 34.0000281 17.0000505 34.0000281"/></g></g>
                    <path d="M2.5,4 L2.5,68" id="el_XiM917bn2Rm" stroke-linecap="square"/>
                    <circle id="el_XSQcuVlvQNp" cx="2.5" cy="2.5" r="2.5"/>
                </g>
                <g id="el_6MQDy3UJ4Ge">
                    <path d="M30.4064521,37.8210216 C26.5422686,45.4080665 26.1771605,52.5487219 26.1771605,57.7583073 C26.1771605,57.7583073 26.1771605,59.311199 26.1771605,62.4169825 L28.3324226,64.0246637 L24.2157331,64.0246637 C20.0199365,47.2387093 17.0401128,35.4433249 16.4512013,29.1040536 C21.9393126,25.3349509 25.7654325,23.3127235 28.8319637,22.5718279 C31.9876547,21.8093907 29.2217111,21.8093907 36.1780443,22.5718279 L30.4064521,37.8210216 Z" id="el_1_-_w0FjxK2"/>
                    <path d="M5.51405012,9.21511071 C8.28386001,9.33164324 13.8953617,12.5991093 15.3978196,14.1505514 C17.6515064,16.4777146 19.7487465,19.1550599 22.4104058,19.1550599 C25.0720652,19.1550599 28.3578407,17.327918 28.8164684,17.6362739 C29.275096,17.9446298 29.82436,19.1481801 27.8142182,21.0661324 C25.8040765,22.9840847 22.4104058,26.0376178 15.1841328,26.0376178 C7.9578598,26.0376178 -0.00669085593,18.0826075 -0.236543303,16.7790495 C-0.389778268,15.9100108 1.52708621,13.3886979 5.51405012,9.21511071 Z" id="el_U6Rf6qR9C6p"/>
                    <path d="M25.7207649,20.5779186 C28.8217388,19.8073605 28.0687455,22.3303979 34.9044616,23.100956 C37.4592084,24.9228185 44.9958207,26.9193066 45.4443419,31.1043469 C45.8635734,35.0160907 46.2020962,40.4604459 44.6663088,50.4457698 L47,52.0714539 L42.360445,52.0714539 C42.3498051,43.1750758 40.6135868,38.4064259 37.1517902,37.7655042 C33.6899936,37.1245824 30.9086523,36.7826755 28.8077663,36.7397833 C23.4418572,35.7898435 20.5285609,33.4099718 20.0678777,29.6001683 C19.6071945,25.7903647 21.4914902,22.7829481 25.7207649,20.5779186 Z" id="el_1odjf3RJBom"/>
                    <polygon id="el_PZodI5xH9H4" points="24.2166969 64.0213718 28.3487499 64.0213718 26.170733 62.3974944 23.8467399 62.5667212"/>
                    <polygon id="el_FKcHEYN_f9k" points="44.6717928 50.4367054 47.0307018 52.0720029 42.331986 52.0720029 42.331986 50.4367054"/>
                </g>
                <path d="M59.3844361,57.8679452 C58.7697447,52.5871431 58.8921957,48.1070187 59.7517888,44.4275717 C61.8358371,35.5069042 65.7880597,31.3887623 71.6084566,32.0731461 C74.3782665,32.1896786 76.5144004,33.0236659 78.0168583,34.575108 C80.2705451,36.9022712 82.3677852,39.5796165 85.0294445,39.5796165 C87.6911038,39.5796165 91.4355071,37.6236877 91.4355071,38.0608305 C91.4355071,38.4979734 92.4433986,39.5727367 90.4332569,41.490689 C88.4231152,43.4086413 85.0294445,46.4621744 77.8031715,46.4621744 C77.8031715,46.4621744 79.5902557,52.7567979 80.6263155,53.3301328 L59.3844361,57.8679452 Z" id="el_nmT0O5jeMEn"/>
                <path d="M79.6225567,46.3941649 C79.0446303,46.4385546 78.438724,46.4621744 77.8031715,46.4621744 C77.8031715,46.4621744 81.8920875,54.5534896 83.0210339,55.2045614 C75.3673214,60.4743267 66.7324487,60.4420679 55.7651231,59.1353166 C55.0497269,53.5298327 56.852078,48.2787404 57.7517888,44.4275717 C58.4878839,41.2767525 59.7065467,38.7250645 61.2315235,36.7725078 C64.0240941,33.1969436 67.8438496,31.6304897 71.6084566,32.0731461 C74.3782665,32.1896786 76.5144004,33.0236659 78.0168583,34.575108 C78.6291189,35.20733 79.2298329,35.8653971 79.8334542,36.4886056 C79.1524815,38.3547951 78.7937571,40.1445035 78.7572811,41.8577308 C78.7208051,43.5709581 79.0092303,45.0831028 79.6225567,46.3941649 Z" id="el_bpmju0Zyybx"/>
                <g id="el_qtpYOsCSOAr">
                    <path d="M13.0206575,5.87969629 C14.2908755,6.87551112 14.8626792,7.671247 14.7360684,8.26690395 C14.6452342,8.69424492 14.347113,9.08849944 13.9724716,9.3359042 C14.0270933,11.6951228 12.880922,13.7321836 10.9984758,14.2719664 C8.6328061,14.9503113 5.08610881,13.3687597 4.20426047,10.2933891 C3.32241213,7.21801848 5.43935077,3.813409 7.80502049,3.13506413 C9.72867441,2.58346524 11.82885,3.76526533 13.0206575,5.87969629 Z" id="el_yyk4FtYzv1v"/>
                    <path d="M3.48439056,12.6174264 C4.49379013,12.9649905 6.00081971,13.0696012 6.60816098,12.4458941 C7.30609966,11.7291483 6.98933458,10.2219579 6.26098907,9.87919223 C4.66374389,9.31038225 5.35066261,7.31542543 7.3773285,8.01326246 C9.40399438,8.71109948 13.0712679,6.49950746 12.7304964,4.69972484 C12.3897249,2.89994223 9.14709238,1.17956806 6.72740129,1.80474954 C4.30771019,2.42993101 2.54687252,3.16463531 1.37919162,6.55582688 C0.211510727,9.94701844 1.31501877,11.8704518 3.48439056,12.6174264 Z" id="el_uC1f018Evlc"/>
                </g>
                <path d="M62.8179368,35.0011461 C60.3000812,35.9858421 58.0857057,37.1903778 56.1748103,38.6147535 C54.2639149,40.0391292 54.3951323,43.6134108 56.5684626,49.3375985 C57.1646153,46.4337134 57.8509013,44.0137756 58.6273206,42.077785 C59.4037398,40.1417944 60.8006119,37.7829148 62.8179368,35.0011461 Z" id="el_2qZdfO8Qqi9"/>
            </g>
        </g>
    </g>
</svg>