<svg width="110" height="100" viewBox="0 0 110 100" version="1.1" xmlns="http://www.w3.org/2000/svg" xmlns:xlink="http://www.w3.org/1999/xlink" id="el_qxyZu8aju"><style>@-webkit-keyframes kf_el_izHt6TEGHH_an_PWN-dSuW9{0%{-webkit-transform: translate(17.000049591064453px, 12.000027656555176px) scale(1, 1) translate(-17.000049591064453px, -12.000027656555176px);transform: translate(17.000049591064453px, 12.000027656555176px) scale(1, 1) translate(-17.000049591064453px, -12.000027656555176px);}25%{-webkit-transform: translate(17.000049591064453px, 12.000027656555176px) scale(1.05, 1.05) translate(-17.000049591064453px, -12.000027656555176px);transform: translate(17.000049591064453px, 12.000027656555176px) scale(1.05, 1.05) translate(-17.000049591064453px, -12.000027656555176px);}50%{-webkit-transform: translate(17.000049591064453px, 12.000027656555176px) scale(1, 1) translate(-17.000049591064453px, -12.000027656555176px);transform: translate(17.000049591064453px, 12.000027656555176px) scale(1, 1) translate(-17.000049591064453px, -12.000027656555176px);}75%{-webkit-transform: translate(17.000049591064453px, 12.000027656555176px) scale(1.05, 1.05) translate(-17.000049591064453px, -12.000027656555176px);transform: translate(17.000049591064453px, 12.000027656555176px) scale(1.05, 1.05) translate(-17.000049591064453px, -12.000027656555176px);}100%{-webkit-transform: translate(17.000049591064453px, 12.000027656555176px) scale(1, 1) translate(-17.000049591064453px, -12.000027656555176px);transform: translate(17.000049591064453px, 12.000027656555176px) scale(1, 1) translate(-17.000049591064453px, -12.000027656555176px);}}@keyframes kf_el_izHt6TEGHH_an_PWN-dSuW9{0%{-webkit-transform: translate(17.000049591064453px, 12.000027656555176px) scale(1, 1) translate(-17.000049591064453px, -12.000027656555176px);transform: translate(17.000049591064453px, 12.000027656555176px) scale(1, 1) translate(-17.000049591064453px, -12.000027656555176px);}25%{-webkit-transform: translate(17.000049591064453px, 12.000027656555176px) scale(1.05, 1.05) translate(-17.000049591064453px, -12.000027656555176px);transform: translate(17.000049591064453px, 12.000027656555176px) scale(1.05, 1.05) translate(-17.000049591064453px, -12.000027656555176px);}50%{-webkit-transform: translate(17.000049591064453px, 12.000027656555176px) scale(1, 1) translate(-17.000049591064453px, -12.000027656555176px);transform: translate(17.000049591064453px, 12.000027656555176px) scale(1, 1) translate(-17.000049591064453px, -12.000027656555176px);}75%{-webkit-transform: translate(17.000049591064453px, 12.000027656555176px) scale(1.05, 1.05) translate(-17.000049591064453px, -12.000027656555176px);transform: translate(17.000049591064453px, 12.000027656555176px) scale(1.05, 1.05) translate(-17.000049591064453px, -12.000027656555176px);}100%{-webkit-transform: translate(17.000049591064453px, 12.000027656555176px) scale(1, 1) translate(-17.000049591064453px, -12.000027656555176px);transform: translate(17.000049591064453px, 12.000027656555176px) scale(1, 1) translate(-17.000049591064453px, -12.000027656555176px);}}@-webkit-keyframes kf_el_izHt6TEGHH_an_nfo3diYqP{0%{-webkit-transform: translate(17.000049591064453px, 12.000027656555176px) translate(-17.000049591064453px, -12.000027656555176px) translate(0px, 0px);transform: translate(17.000049591064453px, 12.000027656555176px) translate(-17.000049591064453px, -12.000027656555176px) translate(0px, 0px);}25%{-webkit-transform: translate(17.000049591064453px, 12.000027656555176px) translate(-17.000049591064453px, -12.000027656555176px) translate(-2px, 0px);transform: translate(17.000049591064453px, 12.000027656555176px) translate(-17.000049591064453px, -12.000027656555176px) translate(-2px, 0px);}50%{-webkit-transform: translate(17.000049591064453px, 12.000027656555176px) translate(-17.000049591064453px, -12.000027656555176px) translate(0px, 0px);transform: translate(17.000049591064453px, 12.000027656555176px) translate(-17.000049591064453px, -12.000027656555176px) translate(0px, 0px);}75%{-webkit-transform: translate(17.000049591064453px, 12.000027656555176px) translate(-17.000049591064453px, -12.000027656555176px) translate(-2px, 0px);transform: translate(17.000049591064453px, 12.000027656555176px) translate(-17.000049591064453px, -12.000027656555176px) translate(-2px, 0px);}100%{-webkit-transform: translate(17.000049591064453px, 12.000027656555176px) translate(-17.000049591064453px, -12.000027656555176px) translate(0px, 0px);transform: translate(17.000049591064453px, 12.000027656555176px) translate(-17.000049591064453px, -12.000027656555176px) translate(0px, 0px);}}@keyframes kf_el_izHt6TEGHH_an_nfo3diYqP{0%{-webkit-transform: translate(17.000049591064453px, 12.000027656555176px) translate(-17.000049591064453px, -12.000027656555176px) translate(0px, 0px);transform: translate(17.000049591064453px, 12.000027656555176px) translate(-17.000049591064453px, -12.000027656555176px) translate(0px, 0px);}25%{-webkit-transform: translate(17.000049591064453px, 12.000027656555176px) translate(-17.000049591064453px, -12.000027656555176px) translate(-2px, 0px);transform: translate(17.000049591064453px, 12.000027656555176px) translate(-17.000049591064453px, -12.000027656555176px) translate(-2px, 0px);}50%{-webkit-transform: translate(17.000049591064453px, 12.000027656555176px) translate(-17.000049591064453px, -12.000027656555176px) translate(0px, 0px);transform: translate(17.000049591064453px, 12.000027656555176px) translate(-17.000049591064453px, -12.000027656555176px) translate(0px, 0px);}75%{-webkit-transform: translate(17.000049591064453px, 12.000027656555176px) translate(-17.000049591064453px, -12.000027656555176px) translate(-2px, 0px);transform: translate(17.000049591064453px, 12.000027656555176px) translate(-17.000049591064453px, -12.000027656555176px) translate(-2px, 0px);}100%{-webkit-transform: translate(17.000049591064453px, 12.000027656555176px) translate(-17.000049591064453px, -12.000027656555176px) translate(0px, 0px);transform: translate(17.000049591064453px, 12.000027656555176px) translate(-17.000049591064453px, -12.000027656555176px) translate(0px, 0px);}}@-webkit-keyframes kf_el_uI8BLIKJt8_an_4VUu8HmWZ{0%{-webkit-transform: translate(16.5px, 29px) scale(1, 1) translate(-16.5px, -29px);transform: translate(16.5px, 29px) scale(1, 1) translate(-16.5px, -29px);}25%{-webkit-transform: translate(16.5px, 29px) scale(1.03, 1.03) translate(-16.5px, -29px);transform: translate(16.5px, 29px) scale(1.03, 1.03) translate(-16.5px, -29px);}50%{-webkit-transform: translate(16.5px, 29px) scale(1, 1) translate(-16.5px, -29px);transform: translate(16.5px, 29px) scale(1, 1) translate(-16.5px, -29px);}75%{-webkit-transform: translate(16.5px, 29px) scale(1.03, 1.03) translate(-16.5px, -29px);transform: translate(16.5px, 29px) scale(1.03, 1.03) translate(-16.5px, -29px);}100%{-webkit-transform: translate(16.5px, 29px) scale(1, 1) translate(-16.5px, -29px);transform: translate(16.5px, 29px) scale(1, 1) translate(-16.5px, -29px);}}@keyframes kf_el_uI8BLIKJt8_an_4VUu8HmWZ{0%{-webkit-transform: translate(16.5px, 29px) scale(1, 1) translate(-16.5px, -29px);transform: translate(16.5px, 29px) scale(1, 1) translate(-16.5px, -29px);}25%{-webkit-transform: translate(16.5px, 29px) scale(1.03, 1.03) translate(-16.5px, -29px);transform: translate(16.5px, 29px) scale(1.03, 1.03) translate(-16.5px, -29px);}50%{-webkit-transform: translate(16.5px, 29px) scale(1, 1) translate(-16.5px, -29px);transform: translate(16.5px, 29px) scale(1, 1) translate(-16.5px, -29px);}75%{-webkit-transform: translate(16.5px, 29px) scale(1.03, 1.03) translate(-16.5px, -29px);transform: translate(16.5px, 29px) scale(1.03, 1.03) translate(-16.5px, -29px);}100%{-webkit-transform: translate(16.5px, 29px) scale(1, 1) translate(-16.5px, -29px);transform: translate(16.5px, 29px) scale(1, 1) translate(-16.5px, -29px);}}@-webkit-keyframes kf_el_uI8BLIKJt8_an_xt_tLg8LR{0%{-webkit-transform: translate(16.5px, 29px) translate(-16.5px, -29px) translate(0px, 0px);transform: translate(16.5px, 29px) translate(-16.5px, -29px) translate(0px, 0px);}25%{-webkit-transform: translate(16.5px, 29px) translate(-16.5px, -29px) translate(-1px, 0px);transform: translate(16.5px, 29px) translate(-16.5px, -29px) translate(-1px, 0px);}50%{-webkit-transform: translate(16.5px, 29px) translate(-16.5px, -29px) translate(0px, 0px);transform: translate(16.5px, 29px) translate(-16.5px, -29px) translate(0px, 0px);}75%{-webkit-transform: translate(16.5px, 29px) translate(-16.5px, -29px) translate(-1px, 0px);transform: translate(16.5px, 29px) translate(-16.5px, -29px) translate(-1px, 0px);}100%{-webkit-transform: translate(16.5px, 29px) translate(-16.5px, -29px) translate(0px, 0px);transform: translate(16.5px, 29px) translate(-16.5px, -29px) translate(0px, 0px);}}@keyframes kf_el_uI8BLIKJt8_an_xt_tLg8LR{0%{-webkit-transform: translate(16.5px, 29px) translate(-16.5px, -29px) translate(0px, 0px);transform: translate(16.5px, 29px) translate(-16.5px, -29px) translate(0px, 0px);}25%{-webkit-transform: translate(16.5px, 29px) translate(-16.5px, -29px) translate(-1px, 0px);transform: translate(16.5px, 29px) translate(-16.5px, -29px) translate(-1px, 0px);}50%{-webkit-transform: translate(16.5px, 29px) translate(-16.5px, -29px) translate(0px, 0px);transform: translate(16.5px, 29px) translate(-16.5px, -29px) translate(0px, 0px);}75%{-webkit-transform: translate(16.5px, 29px) translate(-16.5px, -29px) translate(-1px, 0px);transform: translate(16.5px, 29px) translate(-16.5px, -29px) translate(-1px, 0px);}100%{-webkit-transform: translate(16.5px, 29px) translate(-16.5px, -29px) translate(0px, 0px);transform: translate(16.5px, 29px) translate(-16.5px, -29px) translate(0px, 0px);}}#el_qxyZu8aju *{-webkit-animation-duration: 2s;animation-duration: 2s;-webkit-animation-iteration-count: infinite;animation-iteration-count: infinite;-webkit-animation-timing-function: cubic-bezier(0, 0, 1, 1);animation-timing-function: cubic-bezier(0, 0, 1, 1);}#el_2VekqRxVVP{stroke: none;stroke-width: 1;fill: none;}#el_9NGu_ieAdP{fill: #93CDFF;}#el_XizPPEleTC{fill: #BEE1FF;}#el_Ou760hO4zh{fill: #D8EDFF;}#el_Uqij9GH_XB{fill: #E7F4FF;}#el_4zRKb4z9cU{fill: #999999;}#el_DcDqaQQgdL{fill: url(#linearGradient-1);}#el_g2YDL93Yln{fill: url(#linearGradient-2);}#el_P0Ag-sa1Xk{fill: url(#linearGradient-3);}#el_X_fxk667V4{-webkit-transform: translate(63.682703209985px, 0.729836670574997px) rotate(6deg);transform: translate(63.682703209985px, 0.729836670574997px) rotate(6deg);}#el_uI8BLIKJt8{fill: url(#linearGradient-4);}#el_izHt6TEGHH{fill: #0189FF;}#el_kGE3l5BDCz{stroke: #005580;stroke-width: 2;}#el_kPK2nMppGe1{fill: #005580;}#el_QeUxiw9Rp96{-webkit-transform: translate(18px, 40px);transform: translate(18px, 40px);}#el_3KIuPxItiJx{fill: url(#linearGradient-5);}#el_Zx7HhMxKZYB{fill: url(#linearGradient-6);-webkit-transform: translate(22.420214459154025px, 3.722526316468202px) rotate(100deg);transform: translate(22.420214459154025px, 3.722526316468202px) rotate(100deg);}#el_iD1SEhySVZ5{fill: url(#linearGradient-7);}#el_GHsRPihlzzA{fill: #2F2F2F;}#el_dHcQhosqWdJ{fill: #222222;}#el_XPEQiM_uC1E{fill: url(#linearGradient-8);}#el_IQ0oGt5s8bP{fill: url(#linearGradient-9);}#el_YvVFsuOOhhN{-webkit-transform: translate(9.419969705229999px, 18.174113202895px) rotate(-12deg);transform: translate(9.419969705229999px, 18.174113202895px) rotate(-12deg);}#el_W8s-7JrFFHm{fill: url(#linearGradient-10);}#el_ef2FBhxQ0ve{fill: #0189FF;-webkit-transform: translate(-2.1511761712819535px, 2.609632497094772px) rotate(-7deg);transform: translate(-2.1511761712819535px, 2.609632497094772px) rotate(-7deg);}#el_uI8BLIKJt8_an_xt_tLg8LR{-webkit-animation-fill-mode: backwards;animation-fill-mode: backwards;-webkit-transform: translate(16.5px, 29px) translate(-16.5px, -29px) translate(0px, 0px);transform: translate(16.5px, 29px) translate(-16.5px, -29px) translate(0px, 0px);-webkit-animation-name: kf_el_uI8BLIKJt8_an_xt_tLg8LR;animation-name: kf_el_uI8BLIKJt8_an_xt_tLg8LR;-webkit-animation-timing-function: cubic-bezier(0.42, 0, 0.58, 1);animation-timing-function: cubic-bezier(0.42, 0, 0.58, 1);}#el_uI8BLIKJt8_an_4VUu8HmWZ{-webkit-animation-fill-mode: backwards;animation-fill-mode: backwards;-webkit-transform: translate(16.5px, 29px) scale(1, 1) translate(-16.5px, -29px);transform: translate(16.5px, 29px) scale(1, 1) translate(-16.5px, -29px);-webkit-animation-name: kf_el_uI8BLIKJt8_an_4VUu8HmWZ;animation-name: kf_el_uI8BLIKJt8_an_4VUu8HmWZ;-webkit-animation-timing-function: cubic-bezier(0, 0, 1, 1);animation-timing-function: cubic-bezier(0, 0, 1, 1);}#el_izHt6TEGHH_an_nfo3diYqP{-webkit-animation-fill-mode: backwards;animation-fill-mode: backwards;-webkit-transform: translate(17.000049591064453px, 12.000027656555176px) translate(-17.000049591064453px, -12.000027656555176px) translate(0px, 0px);transform: translate(17.000049591064453px, 12.000027656555176px) translate(-17.000049591064453px, -12.000027656555176px) translate(0px, 0px);-webkit-animation-name: kf_el_izHt6TEGHH_an_nfo3diYqP;animation-name: kf_el_izHt6TEGHH_an_nfo3diYqP;-webkit-animation-timing-function: cubic-bezier(0.42, 0, 0.58, 1);animation-timing-function: cubic-bezier(0.42, 0, 0.58, 1);}#el_izHt6TEGHH_an_PWN-dSuW9{-webkit-animation-fill-mode: backwards;animation-fill-mode: backwards;-webkit-transform: translate(17.000049591064453px, 12.000027656555176px) scale(1, 1) translate(-17.000049591064453px, -12.000027656555176px);transform: translate(17.000049591064453px, 12.000027656555176px) scale(1, 1) translate(-17.000049591064453px, -12.000027656555176px);-webkit-animation-name: kf_el_izHt6TEGHH_an_PWN-dSuW9;animation-name: kf_el_izHt6TEGHH_an_PWN-dSuW9;-webkit-animation-timing-function: cubic-bezier(0, 0, 1, 1);animation-timing-function: cubic-bezier(0, 0, 1, 1);}</style>
    <!-- Generator: Sketch 53.2 (72643) - https://sketchapp.com -->
    <title>Actividad disponible</title>
    <desc>Created with Sketch.</desc>
    <defs>
        <linearGradient x1="50%" y1="0%" x2="50%" y2="88.7308881%" id="linearGradient-1">
            <stop stop-color="#A3A3A3" offset="0%"/>
            <stop stop-color="#575757" offset="100%"/>
        </linearGradient>
        <linearGradient x1="50%" y1="23.1164455%" x2="50%" y2="88.7308881%" id="linearGradient-2">
            <stop stop-color="#A3A3A3" offset="0%"/>
            <stop stop-color="#575757" offset="100%"/>
        </linearGradient>
        <linearGradient x1="50%" y1="23.1164455%" x2="50%" y2="122.995444%" id="linearGradient-3">
            <stop stop-color="#A3A3A3" offset="0%"/>
            <stop stop-color="#575757" offset="100%"/>
        </linearGradient>
        <linearGradient x1="116.531969%" y1="18.7788585%" x2="22.7233875%" y2="18.7788585%" id="linearGradient-4">
            <stop stop-color="#00559F" offset="0%"/>
            <stop stop-color="#0189FF" offset="100%"/>
        </linearGradient>
        <linearGradient x1="46.837154%" y1="38.9450227%" x2="55.0916534%" y2="86.3111648%" id="linearGradient-5">
            <stop stop-color="#00559F" offset="0%"/>
            <stop stop-color="#0189FF" offset="100%"/>
        </linearGradient>
        <linearGradient x1="59.5969041%" y1="33.8769985%" x2="89.3934846%" y2="33.8769985%" id="linearGradient-6">
            <stop stop-color="#FEB195" offset="0%"/>
            <stop stop-color="#FCC5A6" offset="100%"/>
        </linearGradient>
        <linearGradient x1="27.4845962%" y1="21.1904792%" x2="82.6875499%" y2="75.296077%" id="linearGradient-7">
            <stop stop-color="#00559F" offset="0%"/>
            <stop stop-color="#0189FF" offset="100%"/>
        </linearGradient>
        <linearGradient x1="59.5969041%" y1="33.8769985%" x2="89.3934846%" y2="33.8769985%" id="linearGradient-8">
            <stop stop-color="#FEB195" offset="0%"/>
            <stop stop-color="#FCC5A6" offset="100%"/>
        </linearGradient>
        <linearGradient x1="50%" y1="0%" x2="50%" y2="100%" id="linearGradient-9">
            <stop stop-color="#900000" offset="0%"/>
            <stop stop-color="#CC0000" offset="100%"/>
        </linearGradient>
        <linearGradient x1="43.5108277%" y1="45.5898505%" x2="56.4891723%" y2="96.7031026%" id="linearGradient-10">
            <stop stop-color="#FEB195" offset="0%"/>
            <stop stop-color="#FCC5A6" offset="100%"/>
        </linearGradient>
    </defs>
    <g id="el_2VekqRxVVP" fill-rule="evenodd">
        <g id="el_KRu6Aecrgf">
            <g id="el_lT-_vwIKsX">
                <circle id="el_9NGu_ieAdP" cx="50" cy="50" r="50"/>
                <path d="M84.4113362,13.7250671 C83.8721035,16.6250083 80.8966668,19.1246053 75.4850261,21.2238584 C47.3678733,32.1309049 54.4135044,52.9842065 34.7241118,63.3187907 C23.0569367,69.4426668 11.9412746,68.9041052 1.37712536,61.7031058 C0.476820569,57.9489955 1.37134748e-12,54.0301815 1.37134748e-12,50 C1.37134748e-12,22.3857625 22.3857625,2.84217094e-14 50,2.84217094e-14 C63.3331158,2.84217094e-14 75.44732,5.21878114 84.4113362,13.7250671 Z" id="el_XizPPEleTC"/>
                <path d="M2.58970276e-12,48.5176343 C0.784049141,21.5890633 22.8600499,-2.13162821e-14 49.9784467,-2.13162821e-14 C59.5744489,-2.13162821e-14 68.5390729,2.70325154 76.1523385,7.38977455 C74.7453053,8.68187049 72.6625874,9.86293041 69.9041848,10.9329543 C43.565244,21.1502069 50.1652885,40.684684 31.7211113,50.3656785 C20.6138092,56.1956881 10.0401054,55.5796734 2.53397303e-12,48.5176343 Z" id="el_Ou760hO4zh"/>
                <path d="M2.6,34.0615856 C9.25410068,14.2622427 27.964469,3.90798505e-14 50.0059626,3.90798505e-14 C53.8901464,3.90798505e-14 57.6708855,0.442899641 61.3004325,1.28095163 C42.5109744,10.9990721 46.6582553,27.0535391 30.9527476,35.2970586 C21.0369043,40.5016944 11.5859884,40.08987 2.6,34.0615856 Z" id="el_Uqij9GH_XB"/>
            </g>
            <path d="M9,78.5786169 C10.4345055,76.7784258 12.5313502,75.004823 15.4325915,75.004823 C19.4747065,75.004823 18.7823043,82.004823 25.5690072,82.004823 C29.0682817,82.004823 31.9575251,75.004823 38.215921,75.004823 C43.2282623,75.004823 50.5734444,80.773357 61.0362838,79.004823 C65.8665207,78.1883679 69.7354968,72.7275826 73.9827658,71.67628 C77.3095492,70.85282 82.191053,76.9335353 86.3755472,78.504823 C87.8858246,79.0719358 89.1241253,79.5185767 90.1415949,79.8690171 C81.0259873,92.0906948 66.4553574,100.004823 50.0362838,100.004823 C33.0462815,100.004823 18.035507,91.5307411 9,78.5786169 Z" id="el_4zRKb4z9cU"/>
            <path d="M16.2,86.8637165 C31.1554868,80.8983994 32.9242126,69.6220332 49.2200109,69.0156408 C65.3563958,68.4151804 73.2386984,85.2953658 83.9900239,86.6517056 C75.0673715,94.9350653 63.1152307,100 49.9801111,100 C36.9574296,100 25.0975608,95.0214071 16.2,86.8637165 Z" id="el_DcDqaQQgdL"/>
            <path d="M27.2,94.51875 C39.484282,88.3512018 42.0854877,78.5789868 57.224485,78.0156408 C67.4013555,77.6369433 74.2951207,84.2112659 80.6960754,89.459243 C72.2210089,96.0649106 61.5623417,100 49.9845852,100 C41.777799,100 34.0328142,98.0227936 27.2,94.51875 Z" id="el_g2YDL93Yln"/>
            <path d="M19,89.1786277 C23.4412051,85.4255567 27.9755144,82.3257088 36.3080836,82.0156408 C49.5250725,81.5238157 57.2044643,92.7596148 65.4585621,97.5866043 C60.6102632,99.1534789 55.4380813,100 50.0681838,100 C38.3274083,100 27.5317867,95.9533155 19,89.1786277 Z" id="el_P0Ag-sa1Xk"/>
            <g id="el_X_fxk667V4">
                <g id="el_uI8BLIKJt8_an_xt_tLg8LR" data-animator-group="true" data-animator-type="0"><g id="el_uI8BLIKJt8_an_4VUu8HmWZ" data-animator-group="true" data-animator-type="2"><rect id="el_uI8BLIKJt8" x="3" y="7" width="27" height="22"/></g></g>
                <g id="el_izHt6TEGHH_an_nfo3diYqP" data-animator-group="true" data-animator-type="0"><g id="el_izHt6TEGHH_an_PWN-dSuW9" data-animator-group="true" data-animator-type="2"><polygon id="el_izHt6TEGHH" points="17.0000505 12.0000281 47.0000322 12.0000281 39.5258676 23.000014 47.0000322 34.0000281 17.0000505 34.0000281"/></g></g>
                <path d="M2.5,4 L2.5,68" id="el_kGE3l5BDCz" stroke-linecap="square"/>
                <circle id="el_kPK2nMppGe1" cx="2.5" cy="2.5" r="2.5"/>
            </g>
            <g id="el_QeUxiw9Rp96">
                <path d="M29.4064521,27.8210216 C25.5422686,35.4080665 25.1771605,42.5487219 25.1771605,47.7583073 C25.1771605,47.7583073 25.1771605,49.311199 25.1771605,52.4169825 L27.3324226,54.0246637 L23.2157331,54.0246637 C19.0199365,37.2387093 16.0401128,25.4433249 15.4512013,19.1040536 C20.9393126,15.3349509 24.7654325,13.3127235 27.8319637,12.5718279 C30.9876547,11.8093907 28.2217111,11.8093907 35.1780443,12.5718279 L29.4064521,27.8210216 Z" id="el_3KIuPxItiJx"/>
                <path d="M-0.391543411,4.07314606 C2.37826648,4.1896786 4.51440037,5.02366592 6.01685827,6.57510804 C8.27054511,8.90227121 10.3677852,11.5796165 13.0294445,11.5796165 C15.6911038,11.5796165 19.4355071,9.62368766 19.4355071,10.0608305 C19.4355071,10.4979734 20.4433986,11.5727367 18.4332569,13.490689 C16.4231152,15.4086413 13.0294445,18.4621744 5.80317149,18.4621744 C1.67336156,17.2004709 -0.391543411,15.3328389 -0.391543411,12.8592784 C-0.391543411,10.385718 -0.391543411,7.45700718 -0.391543411,4.07314606 Z" id="el_Zx7HhMxKZYB"/>
                <path d="M24.7207649,10.5779186 C27.8217388,9.80736046 27.0687455,12.3303979 33.9044616,13.100956 C36.4592084,14.9228185 43.9958207,16.9193066 44.4443419,21.1043469 C44.8635734,25.0160907 45.2020962,30.4604459 43.6663088,40.4457698 L46,42.0714539 L41.360445,42.0714539 C41.3498051,33.1750758 39.6135868,28.4064259 36.1517902,27.7655042 C32.6899936,27.1245824 29.9086523,26.7826755 27.8077663,26.7397833 C22.4418572,25.7898435 19.5285609,23.4099718 19.0678777,19.6001683 C18.6071945,15.7903647 20.4914902,12.7829481 24.7207649,10.5779186 Z" id="el_iD1SEhySVZ5"/>
                <polygon id="el_GHsRPihlzzA" points="23.2166969 54.0213718 27.3487499 54.0213718 25.170733 52.3974944 22.8467399 52.5667212"/>
                <polygon id="el_dHcQhosqWdJ" points="43.6717928 40.4367054 46.0307018 42.0720029 41.331986 42.0720029 41.331986 40.4367054"/>
            </g>
            <path d="M32.3844361,57.8679452 C31.7697447,52.5871431 31.8921957,48.1070187 32.7517888,44.4275717 C34.8358371,35.5069042 38.7880597,31.3887623 44.6084566,32.0731461 C47.3782665,32.1896786 49.5144004,33.0236659 51.0168583,34.575108 C53.2705451,36.9022712 55.3677852,39.5796165 58.0294445,39.5796165 C60.6911038,39.5796165 64.4355071,37.6236877 64.4355071,38.0608305 C64.4355071,38.4979734 65.4433986,39.5727367 63.4332569,41.490689 C61.4231152,43.4086413 58.0294445,46.4621744 50.8031715,46.4621744 C50.8031715,46.4621744 52.5902557,52.7567979 53.6263155,53.3301328 L32.3844361,57.8679452 Z" id="el_XPEQiM_uC1E"/>
            <path d="M52.6225567,46.3941649 C52.0446303,46.4385546 51.438724,46.4621744 50.8031715,46.4621744 C50.8031715,46.4621744 54.8920875,54.5534896 56.0210339,55.2045614 C48.3673214,60.4743267 39.7324487,60.4420679 28.7651231,59.1353166 C28.0497269,53.5298327 29.852078,48.2787404 30.7517888,44.4275717 C32.8358371,35.5069042 38.7880597,31.3887623 44.6084566,32.0731461 C47.3782665,32.1896786 49.5144004,33.0236659 51.0168583,34.575108 C51.6291189,35.20733 52.2298329,35.8653971 52.8334542,36.4886056 C52.1524815,38.3547951 51.7937571,40.1445035 51.7572811,41.8577308 C51.7208051,43.5709581 52.0092303,45.0831028 52.6225567,46.3941649 Z" id="el_IQ0oGt5s8bP"/>
            <g id="el_YvVFsuOOhhN">
                <path d="M36.1915017,8.87969629 C37.4617198,9.87551112 38.0335234,10.671247 37.9069126,11.2669039 C37.8160785,11.6942449 37.5179573,12.0884994 37.1433158,12.3359042 C37.1979375,14.6951228 36.0517663,16.7321836 34.1693201,17.2719664 C31.8036504,17.9503113 28.2569531,16.3687597 27.3751047,13.2933891 C26.4932564,10.2180185 28.610195,6.813409 30.9758647,6.13506413 C32.8995187,5.58346524 34.9996943,6.76526533 36.1915017,8.87969629 Z" id="el_W8s-7JrFFHm"/>
                <path d="M31.6106937,17.0799248 C29.8147846,16.4403667 26.4789461,13.7734909 30.6107109,14.0471476 C34.7424757,14.3208042 38.4490447,9.5641194 37.608942,7.49744409 C36.7688392,5.43076878 33.6016631,3.00262871 29.5015188,3.00262871 C25.4013746,3.00262871 22.3043401,6.50784272 21.2852965,9.0183044 C20.2662528,11.5287661 17.9278967,15.7096688 13.7006284,15.3718244 C9.47336011,15.0339801 2.16977444,18.511937 2.82883113,24.9626822 C3.48788782,31.4134274 10.0777352,35.9618299 16.4500556,34.5058135 C22.8223759,33.0497971 37.6180582,19.9070423 31.6106937,17.0799248 Z" id="el_ef2FBhxQ0ve"/>
            </g>
        </g>
    </g>
</svg>