<svg width="111" height="100" viewBox="0 0 111 100" version="1.1" xmlns="http://www.w3.org/2000/svg" xmlns:xlink="http://www.w3.org/1999/xlink" id="el_Hzp77HWXx"><style>@-webkit-keyframes kf_el__BIIOoMrnhD_an_Bg46Ia3KL{0%{-webkit-transform: translate(101.34674072265625px, 27.499168395996094px) rotate(0deg) translate(-101.34674072265625px, -27.499168395996094px);transform: translate(101.34674072265625px, 27.499168395996094px) rotate(0deg) translate(-101.34674072265625px, -27.499168395996094px);}16.67%{-webkit-transform: translate(101.34674072265625px, 27.499168395996094px) rotate(-2deg) translate(-101.34674072265625px, -27.499168395996094px);transform: translate(101.34674072265625px, 27.499168395996094px) rotate(-2deg) translate(-101.34674072265625px, -27.499168395996094px);}33.33%{-webkit-transform: translate(101.34674072265625px, 27.499168395996094px) rotate(0deg) translate(-101.34674072265625px, -27.499168395996094px);transform: translate(101.34674072265625px, 27.499168395996094px) rotate(0deg) translate(-101.34674072265625px, -27.499168395996094px);}50%{-webkit-transform: translate(101.34674072265625px, 27.499168395996094px) rotate(-2deg) translate(-101.34674072265625px, -27.499168395996094px);transform: translate(101.34674072265625px, 27.499168395996094px) rotate(-2deg) translate(-101.34674072265625px, -27.499168395996094px);}66.67%{-webkit-transform: translate(101.34674072265625px, 27.499168395996094px) rotate(0deg) translate(-101.34674072265625px, -27.499168395996094px);transform: translate(101.34674072265625px, 27.499168395996094px) rotate(0deg) translate(-101.34674072265625px, -27.499168395996094px);}83.33%{-webkit-transform: translate(101.34674072265625px, 27.499168395996094px) rotate(-2deg) translate(-101.34674072265625px, -27.499168395996094px);transform: translate(101.34674072265625px, 27.499168395996094px) rotate(-2deg) translate(-101.34674072265625px, -27.499168395996094px);}100%{-webkit-transform: translate(101.34674072265625px, 27.499168395996094px) rotate(0deg) translate(-101.34674072265625px, -27.499168395996094px);transform: translate(101.34674072265625px, 27.499168395996094px) rotate(0deg) translate(-101.34674072265625px, -27.499168395996094px);}}@keyframes kf_el__BIIOoMrnhD_an_Bg46Ia3KL{0%{-webkit-transform: translate(101.34674072265625px, 27.499168395996094px) rotate(0deg) translate(-101.34674072265625px, -27.499168395996094px);transform: translate(101.34674072265625px, 27.499168395996094px) rotate(0deg) translate(-101.34674072265625px, -27.499168395996094px);}16.67%{-webkit-transform: translate(101.34674072265625px, 27.499168395996094px) rotate(-2deg) translate(-101.34674072265625px, -27.499168395996094px);transform: translate(101.34674072265625px, 27.499168395996094px) rotate(-2deg) translate(-101.34674072265625px, -27.499168395996094px);}33.33%{-webkit-transform: translate(101.34674072265625px, 27.499168395996094px) rotate(0deg) translate(-101.34674072265625px, -27.499168395996094px);transform: translate(101.34674072265625px, 27.499168395996094px) rotate(0deg) translate(-101.34674072265625px, -27.499168395996094px);}50%{-webkit-transform: translate(101.34674072265625px, 27.499168395996094px) rotate(-2deg) translate(-101.34674072265625px, -27.499168395996094px);transform: translate(101.34674072265625px, 27.499168395996094px) rotate(-2deg) translate(-101.34674072265625px, -27.499168395996094px);}66.67%{-webkit-transform: translate(101.34674072265625px, 27.499168395996094px) rotate(0deg) translate(-101.34674072265625px, -27.499168395996094px);transform: translate(101.34674072265625px, 27.499168395996094px) rotate(0deg) translate(-101.34674072265625px, -27.499168395996094px);}83.33%{-webkit-transform: translate(101.34674072265625px, 27.499168395996094px) rotate(-2deg) translate(-101.34674072265625px, -27.499168395996094px);transform: translate(101.34674072265625px, 27.499168395996094px) rotate(-2deg) translate(-101.34674072265625px, -27.499168395996094px);}100%{-webkit-transform: translate(101.34674072265625px, 27.499168395996094px) rotate(0deg) translate(-101.34674072265625px, -27.499168395996094px);transform: translate(101.34674072265625px, 27.499168395996094px) rotate(0deg) translate(-101.34674072265625px, -27.499168395996094px);}}@-webkit-keyframes kf_el_4EUZ89J37OM_an_sDPwjqG47{0%{-webkit-transform: translate(29px, 63px) rotate(5deg) translate(-29px, -63px);transform: translate(29px, 63px) rotate(5deg) translate(-29px, -63px);}25%{-webkit-transform: translate(29px, 63px) rotate(-5deg) translate(-29px, -63px);transform: translate(29px, 63px) rotate(-5deg) translate(-29px, -63px);}50%{-webkit-transform: translate(29px, 63px) rotate(5deg) translate(-29px, -63px);transform: translate(29px, 63px) rotate(5deg) translate(-29px, -63px);}75%{-webkit-transform: translate(29px, 63px) rotate(-5deg) translate(-29px, -63px);transform: translate(29px, 63px) rotate(-5deg) translate(-29px, -63px);}100%{-webkit-transform: translate(29px, 63px) rotate(5deg) translate(-29px, -63px);transform: translate(29px, 63px) rotate(5deg) translate(-29px, -63px);}}@keyframes kf_el_4EUZ89J37OM_an_sDPwjqG47{0%{-webkit-transform: translate(29px, 63px) rotate(5deg) translate(-29px, -63px);transform: translate(29px, 63px) rotate(5deg) translate(-29px, -63px);}25%{-webkit-transform: translate(29px, 63px) rotate(-5deg) translate(-29px, -63px);transform: translate(29px, 63px) rotate(-5deg) translate(-29px, -63px);}50%{-webkit-transform: translate(29px, 63px) rotate(5deg) translate(-29px, -63px);transform: translate(29px, 63px) rotate(5deg) translate(-29px, -63px);}75%{-webkit-transform: translate(29px, 63px) rotate(-5deg) translate(-29px, -63px);transform: translate(29px, 63px) rotate(-5deg) translate(-29px, -63px);}100%{-webkit-transform: translate(29px, 63px) rotate(5deg) translate(-29px, -63px);transform: translate(29px, 63px) rotate(5deg) translate(-29px, -63px);}}@-webkit-keyframes kf_el_bw3DneTVtM_an_fKpwzGyv4{0%{-webkit-transform: translate(19.75px, 83.00000000000068px) rotate(-5deg) translate(-19.75px, -83.00000000000068px);transform: translate(19.75px, 83.00000000000068px) rotate(-5deg) translate(-19.75px, -83.00000000000068px);}25%{-webkit-transform: translate(19.75px, 83.00000000000068px) rotate(5deg) translate(-19.75px, -83.00000000000068px);transform: translate(19.75px, 83.00000000000068px) rotate(5deg) translate(-19.75px, -83.00000000000068px);}50%{-webkit-transform: translate(19.75px, 83.00000000000068px) rotate(-5deg) translate(-19.75px, -83.00000000000068px);transform: translate(19.75px, 83.00000000000068px) rotate(-5deg) translate(-19.75px, -83.00000000000068px);}75%{-webkit-transform: translate(19.75px, 83.00000000000068px) rotate(5deg) translate(-19.75px, -83.00000000000068px);transform: translate(19.75px, 83.00000000000068px) rotate(5deg) translate(-19.75px, -83.00000000000068px);}100%{-webkit-transform: translate(19.75px, 83.00000000000068px) rotate(-5deg) translate(-19.75px, -83.00000000000068px);transform: translate(19.75px, 83.00000000000068px) rotate(-5deg) translate(-19.75px, -83.00000000000068px);}}@keyframes kf_el_bw3DneTVtM_an_fKpwzGyv4{0%{-webkit-transform: translate(19.75px, 83.00000000000068px) rotate(-5deg) translate(-19.75px, -83.00000000000068px);transform: translate(19.75px, 83.00000000000068px) rotate(-5deg) translate(-19.75px, -83.00000000000068px);}25%{-webkit-transform: translate(19.75px, 83.00000000000068px) rotate(5deg) translate(-19.75px, -83.00000000000068px);transform: translate(19.75px, 83.00000000000068px) rotate(5deg) translate(-19.75px, -83.00000000000068px);}50%{-webkit-transform: translate(19.75px, 83.00000000000068px) rotate(-5deg) translate(-19.75px, -83.00000000000068px);transform: translate(19.75px, 83.00000000000068px) rotate(-5deg) translate(-19.75px, -83.00000000000068px);}75%{-webkit-transform: translate(19.75px, 83.00000000000068px) rotate(5deg) translate(-19.75px, -83.00000000000068px);transform: translate(19.75px, 83.00000000000068px) rotate(5deg) translate(-19.75px, -83.00000000000068px);}100%{-webkit-transform: translate(19.75px, 83.00000000000068px) rotate(-5deg) translate(-19.75px, -83.00000000000068px);transform: translate(19.75px, 83.00000000000068px) rotate(-5deg) translate(-19.75px, -83.00000000000068px);}}#el_Hzp77HWXx *{-webkit-animation-duration: 2s;animation-duration: 2s;-webkit-animation-iteration-count: infinite;animation-iteration-count: infinite;-webkit-animation-timing-function: cubic-bezier(0, 0, 1, 1);animation-timing-function: cubic-bezier(0, 0, 1, 1);}#el_mS-GlI7lI2{stroke: none;stroke-width: 1;fill: none;}#el_tNM7lE4OJr{fill: #93CDFF;}#el_UbvWIJBATf{fill: #BEE1FF;}#el_gBU3TvyAYM{fill: #D8EDFF;}#el_6b5NMR1-KE{fill: #E7F4FF;}#el_Q89qGWhBKN{fill: url(#linearGradient-1);}#el_lIpW1hj4Ke{fill: url(#linearGradient-2);}#el_-7GnRfW8zY{fill: #E6E6E6;}#el_bw3DneTVtM{-webkit-transform: translate(14px, 65px);transform: translate(14px, 65px);stroke: #0189FF;stroke-width: 3;}#el_fI_tG2V5u4{-webkit-transform: translate(4.5px, 0px) scale(-1, 1);transform: translate(4.5px, 0px) scale(-1, 1);}#el_4EUZ89J37OM{-webkit-transform: translate(25px, 49px);transform: translate(25px, 49px);stroke: #0189FF;stroke-width: 2;}#el_Zkzu9Tx4G8X{-webkit-transform: translate(9px, 6px) rotate(90deg);transform: translate(9px, 6px) rotate(90deg);}#el_1QcX3knp0hc{fill: #F8F8F8;}#el_FFzkL--gHqb{stroke: #E6E6E6;stroke-width: 2;}#el_fGjle2LntUy{stroke: #E6E6E6;stroke-width: 2;}#el_IyIzJRYKyjU{stroke: #E6E6E6;stroke-width: 2;}#el_JhOAlkXYdEn{-webkit-transform: translate(121px, 32px) scale(-1, 1);transform: translate(121px, 32px) scale(-1, 1);}#el_Q1FmBdR7SNP{fill: url(#linearGradient-3);}#el_noEjaSBK5Hb{fill: url(#linearGradient-3);}#el_XpoeUfBwRAR{-webkit-transform: translate(7.652861279974999px, 0.19085493494999994px) rotate(11deg);transform: translate(7.652861279974999px, 0.19085493494999994px) rotate(11deg);}#el_GKGUWg8hztY{-webkit-transform: translate(0.4347600934000013px, 5.405536550059999px) rotate(-9deg);transform: translate(0.4347600934000013px, 5.405536550059999px) rotate(-9deg);}#el_qWfiGYZEAeu{fill: url(#linearGradient-4);-webkit-transform: translate(36.18145079347518px, 11.965993121935334px) rotate(114deg);transform: translate(36.18145079347518px, 11.965993121935334px) rotate(114deg);}#el_qm8RmQ4GsXU{fill: url(#linearGradient-5);}#el_RxUfRuTnaPC{fill: url(#linearGradient-6);-webkit-transform: translate(-3.8770423402300622px, 6.856656066071945px) rotate(-14deg);transform: translate(-3.8770423402300622px, 6.856656066071945px) rotate(-14deg);}#el_hZb9g7oV3Y6{-webkit-transform: translate(23px, 3px);transform: translate(23px, 3px);}#el_2jSMue6UJlm{fill: #FCB08E;-webkit-transform: translate(14.992031424681976px, -3.1378935206945613px) rotate(-309deg);transform: translate(14.992031424681976px, -3.1378935206945613px) rotate(-309deg);}#el_scJvhmrzQBa{fill: url(#linearGradient-7);-webkit-transform: translate(2.642005400031019px, -1.8833529140308105px) rotate(17deg);transform: translate(2.642005400031019px, -1.8833529140308105px) rotate(17deg);}#el_L6UXmik38LO{fill: #2F2F2F;}#el_ubC2fYzMO4x{fill: #2F2F2F;}#el_4lOMuk6F6Ev{fill: url(#linearGradient-8);-webkit-transform: translate(185.246718px, 0px) scale(-1, 1);transform: translate(185.246718px, 0px) scale(-1, 1);}#el__BIIOoMrnhD{fill: #0189FF;-webkit-transform: translate(194.18426845560077px, 11.876818651254325px) scale(-1, 1) rotate(-7deg);transform: translate(194.18426845560077px, 11.876818651254325px) scale(-1, 1) rotate(-7deg);}#el_bw3DneTVtM_an_fKpwzGyv4{-webkit-animation-fill-mode: backwards;animation-fill-mode: backwards;-webkit-transform: translate(19.75px, 83.00000000000068px) rotate(-5deg) translate(-19.75px, -83.00000000000068px);transform: translate(19.75px, 83.00000000000068px) rotate(-5deg) translate(-19.75px, -83.00000000000068px);-webkit-animation-name: kf_el_bw3DneTVtM_an_fKpwzGyv4;animation-name: kf_el_bw3DneTVtM_an_fKpwzGyv4;-webkit-animation-timing-function: cubic-bezier(0, 0, 1, 1);animation-timing-function: cubic-bezier(0, 0, 1, 1);}#el_4EUZ89J37OM_an_sDPwjqG47{-webkit-animation-fill-mode: backwards;animation-fill-mode: backwards;-webkit-transform: translate(29px, 63px) rotate(5deg) translate(-29px, -63px);transform: translate(29px, 63px) rotate(5deg) translate(-29px, -63px);-webkit-animation-name: kf_el_4EUZ89J37OM_an_sDPwjqG47;animation-name: kf_el_4EUZ89J37OM_an_sDPwjqG47;-webkit-animation-timing-function: cubic-bezier(0, 0, 1, 1);animation-timing-function: cubic-bezier(0, 0, 1, 1);}#el__BIIOoMrnhD_an_Bg46Ia3KL{-webkit-animation-fill-mode: backwards;animation-fill-mode: backwards;-webkit-transform: translate(101.34674072265625px, 27.499168395996094px) rotate(0deg) translate(-101.34674072265625px, -27.499168395996094px);transform: translate(101.34674072265625px, 27.499168395996094px) rotate(0deg) translate(-101.34674072265625px, -27.499168395996094px);-webkit-animation-name: kf_el__BIIOoMrnhD_an_Bg46Ia3KL;animation-name: kf_el__BIIOoMrnhD_an_Bg46Ia3KL;-webkit-animation-timing-function: cubic-bezier(0, 0, 1, 1);animation-timing-function: cubic-bezier(0, 0, 1, 1);}</style>
    <!-- Generator: Sketch 53.2 (72643) - https://sketchapp.com -->
    <title>Actividad no disponible masculino</title>
    <desc>Created with Sketch.</desc>
    <defs>
        <linearGradient x1="50%" y1="23.1164455%" x2="50%" y2="100%" id="linearGradient-1">
            <stop stop-color="#A3A3A3" offset="0%"/>
            <stop stop-color="#575757" offset="100%"/>
        </linearGradient>
        <linearGradient x1="50%" y1="23.1164455%" x2="50%" y2="120.204682%" id="linearGradient-2">
            <stop stop-color="#A3A3A3" offset="0%"/>
            <stop stop-color="#575757" offset="100%"/>
        </linearGradient>
        <linearGradient x1="45.8142232%" y1="21.1904792%" x2="56.0768526%" y2="75.296077%" id="linearGradient-3">
            <stop stop-color="#00559F" offset="0%"/>
            <stop stop-color="#0189FF" offset="100%"/>
        </linearGradient>
        <linearGradient x1="59.5969041%" y1="33.8769985%" x2="89.3934846%" y2="33.8769985%" id="linearGradient-4">
            <stop stop-color="#FEB195" offset="0%"/>
            <stop stop-color="#FCC5A6" offset="100%"/>
        </linearGradient>
        <linearGradient x1="3.59064469%" y1="-50.2708037%" x2="50%" y2="100%" id="linearGradient-5">
            <stop stop-color="#900000" offset="0%"/>
            <stop stop-color="#CC0000" offset="100%"/>
        </linearGradient>
        <linearGradient x1="50%" y1="0%" x2="50%" y2="100%" id="linearGradient-6">
            <stop stop-color="#900000" offset="0%"/>
            <stop stop-color="#CC0000" offset="100%"/>
        </linearGradient>
        <linearGradient x1="-46.3804055%" y1="0%" x2="50%" y2="100%" id="linearGradient-7">
            <stop stop-color="#900000" offset="0%"/>
            <stop stop-color="#CC0000" offset="100%"/>
        </linearGradient>
        <linearGradient x1="43.5108277%" y1="45.5898505%" x2="56.4891723%" y2="96.7031026%" id="linearGradient-8">
            <stop stop-color="#FEB195" offset="0%"/>
            <stop stop-color="#FCC5A6" offset="100%"/>
        </linearGradient>
    </defs>
    <g id="el_mS-GlI7lI2" fill-rule="evenodd">
        <g id="el_x0Tx2ksBi5">
            <g id="el_cegyR4RmAq">
                <g id="el_VmomSq6OBm">
                    <circle id="el_tNM7lE4OJr" cx="50" cy="50" r="50"/>
                    <path d="M84.4113362,13.7250671 C83.8721035,16.6250083 80.8966668,19.1246053 75.4850261,21.2238584 C47.3678733,32.1309049 54.4135044,52.9842065 34.7241118,63.3187907 C23.0569367,69.4426668 11.9412746,68.9041052 1.37712536,61.7031058 C0.476820569,57.9489955 0,54.0301815 0,50 C0,22.3857625 22.3857625,0 50,0 C63.3331158,0 75.44732,5.21878114 84.4113362,13.7250671 Z" id="el_UbvWIJBATf"/>
                    <path d="M7.99135064e-13,48.5176343 C0.784049141,21.5890633 22.8600499,0 49.9784467,0 C59.5744489,0 68.5390729,2.70325154 76.1523385,7.38977455 C74.7453053,8.68187049 72.6625874,9.86293041 69.9041848,10.9329543 C43.565244,21.1502069 50.1652885,40.684684 31.7211113,50.3656785 C20.6138092,56.1956881 10.0401054,55.5796734 7.43405337e-13,48.5176343 Z" id="el_gBU3TvyAYM"/>
                    <path d="M2.6,34.0615856 C9.25410068,14.2622427 27.964469,0 50.0059626,0 C53.8901464,0 57.6708855,0.442899641 61.3004325,1.28095163 C42.5109744,10.9990721 46.6582553,27.0535391 30.9527476,35.2970586 C21.0369043,40.5016944 11.5859884,40.08987 2.6,34.0615856 Z" id="el_6b5NMR1-KE"/>
                </g>
            </g>
            <path d="M2,57.2391431 C8.03419123,47.0797144 12.3986585,42 15.0934018,42 C19.1355168,42 20.528809,50.1421471 27.315512,50.1421471 C30.8147864,50.1421471 32.205804,44.717239 37.581318,44.717239 C42.9568319,44.717239 49.5222061,57.7568385 50.6621788,57.2391431 C52.0167912,56.6239733 47.6565043,56.6788556 37.581318,57.4037899 L27.315512,59.9602828 L12.9545849,60.325436 L2,57.2391431 Z" id="el_Q89qGWhBKN"/>
            <path d="M50,57.2391431 C55.7719965,41.0797144 60.4697971,33 64.0934018,33 C69.528809,33 69.528809,41.1421471 76.315512,41.1421471 C79.8147864,41.1421471 81.205804,35.717239 86.581318,35.717239 C91.9568319,35.717239 98.5222061,57.7568385 99.6621788,57.2391431 C101.016791,56.6239733 96.6565043,56.6788556 86.581318,57.4037899 L76.315512,59.9602828 L61.9545849,60.325436 L50,57.2391431 Z" id="el_lIpW1hj4Ke"/>
            <path d="M0.3,55.9 L99.5874001,55.9 C96.6232666,80.6853599 75.5273932,99.9 49.9437001,99.9 C24.360007,99.9 3.26413353,80.6853599 0.3,55.9 Z" id="el_-7GnRfW8zY"/>
            <g id="el_bw3DneTVtM_an_fKpwzGyv4" data-animator-group="true" data-animator-type="1"><g id="el_bw3DneTVtM" stroke-linecap="round">
                <path d="M5.41305916,2.5 L5.41305916,18" id="el_tDy9UiuY69"/>
                <path d="M11.5,5 L11.5,9 C11.5,11.4852814 9.48528137,13.5 7,13.5" id="el_yGe-nitlUY"/>
                <path d="M4.5,6.82121026e-13 L4.5,9 C4.5,11.4852814 2.48528137,13.5 0,13.5" id="el_fI_tG2V5u4"/>
            </g></g>
            <g id="el_4EUZ89J37OM_an_sDPwjqG47" data-animator-group="true" data-animator-type="1"><g id="el_4EUZ89J37OM" stroke-linecap="round">
                <path d="M3.70652958,3.34375 L3.70652958,14" id="el_XoEbwhEnlFz"/>
                <path d="M8,0 L8,2.82352941 C8,4.57784568 6.65685425,6 5,6" id="el_46VaEo_WooR"/>
                <path d="M3,6 C3,7.65685425 1.65685425,9 0,9" id="el_Zkzu9Tx4G8X"/>
            </g></g>
            <path d="M33,96.9257278 L42.3013018,56 L56.3013018,56 L65.7486124,97.5681669 C60.8838792,99.1468372 55.6922239,100 50.3013018,100 C44.219488,100 38.3912893,98.9141445 33,96.9257278 Z" id="el_1QcX3knp0hc"/>
            <path d="M49,57.8245103 L49,65.3245103" id="el_FFzkL--gHqb" stroke-linecap="round"/>
            <path d="M49,69.8245103 L49,80.2692464" id="el_fGjle2LntUy" stroke-linecap="round"/>
            <path d="M49,83.8245103 L49,96.6490205" id="el_IyIzJRYKyjU" stroke-linecap="round"/>
            <g id="el_JhOAlkXYdEn">
                <path d="M18.5021985,35.7923297 C20.4354001,40.9836637 21.8824095,46.0701755 22.8432267,51.0518652 C23.8040439,56.0335548 24.4072689,61.5771932 24.6529015,67.6827803 L26.4296006,67.6827803 C28.4754286,59.7917263 29.8163691,53.7518977 30.4524221,49.5632946 C31.088475,45.3746914 31.6043344,39.1869266 32,31 L18.5021985,35.7923297 Z" id="el_Q1FmBdR7SNP"/>
                <path d="M27.5021985,34.7923297 C29.4354001,39.9836637 30.8824095,45.0701755 31.8432267,50.0518652 C32.8040439,55.0335548 33.4072689,60.5771932 33.6529015,66.6827803 L35.4296006,66.6827803 C37.4754286,58.7917263 38.8163691,52.7518977 39.4524221,48.5632946 C40.088475,44.3746914 40.6043344,38.1869266 41,30 L27.5021985,34.7923297 Z" id="el_noEjaSBK5Hb"/>
                <g id="el_XpoeUfBwRAR">
                    <g id="el_GKGUWg8hztY">
                        <path d="M5.21729671,9.53918341 C7.9871066,9.65571594 12.6998142,13.3615531 14.2022721,14.9129953 C16.455959,17.2401584 18.553199,19.9175037 21.2148584,19.9175037 C23.8765177,19.9175037 28.0610873,17.6519907 28.519715,17.9603466 C28.9783426,18.2687025 29.5276065,19.4722528 27.5174648,21.3902051 C25.5073231,23.3081574 23.0124465,25.9233193 15.7861735,25.9233193 C8.55990044,25.9233193 -0.303444265,18.4066802 -0.533296712,17.1031222 C-0.686531677,16.2340835 1.2303328,13.7127706 5.21729671,9.53918341 Z" id="el_qWfiGYZEAeu"/>
                        <path d="M17.9842086,5 C15.466353,5.98469592 13.2519775,7.18923171 11.3410821,8.61360736 C9.43018667,10.037983 9.56140411,13.6122647 11.7347344,19.3364524 C12.3308871,16.4325673 13.0171731,14.0126295 13.7935924,12.0766388 C14.5700116,10.1406482 15.9668837,7.78176863 17.9842086,5 Z" id="el_qm8RmQ4GsXU"/>
                    </g>
                    <path d="M35.5415418,17.1479882 C35.5415418,17.1479882 39.421114,29.2338215 40.5500604,29.8848934 C37.5765549,31.9322235 34.4549569,33.1792866 31.1060273,33.862255 C25.8349142,34.9372263 18.2114355,35.5372059 11.5049706,34.738134 C10.7895745,29.1326501 14.5904483,18.9645542 15.4901592,15.1133856 C17.5742074,6.19271804 21.7639147,2.72642826 27.5843116,3.41081199 C30.3541215,3.52734453 32.7694469,5.4500358 34.2719048,7.00147792 C34.8841654,7.63369987 36.1770943,17.1479882 35.5415418,17.1479882 Z" id="el_RxUfRuTnaPC"/>
                    <g id="el_hZb9g7oV3Y6">
                        <path d="M3.62706418,8.48936663 C6.39687406,8.60589916 7.97381505,10.2689241 9.47627295,11.8203662 C11.7299598,14.1475293 14.3863928,15.9958371 17.0480521,15.9958371 C19.7097114,15.9958371 21.517013,15.7760785 19.5068713,17.6940308 C17.4967296,19.6119831 12.9126277,20.1734149 10.1902628,19.6378378 C7.46789783,19.1022607 5.28432695,19.1461937 3.12675602,15.8227642 C0.525373852,11.8157069 0.445465952,8.11526257 3.62706418,8.48936663 Z" id="el_2jSMue6UJlm"/>
                        <path d="M4.59498812,13.7126408 C6.569381,13.3637985 8.32372161,12.5873998 9.85800996,11.3834447 C11.3922983,10.1794895 12.4927976,9.0991843 13.1595079,8.14252905 C11.2597283,4.8035129 8.49784255,2.80707671 4.8738505,2.15322047 C1.24985846,1.49936424 1.15690433,5.35250435 4.59498812,13.7126408 Z" id="el_scJvhmrzQBa"/>
                    </g>
                </g>
                <polygon id="el_L6UXmik38LO" points="24 68 28.6377719 68 26.6263389 66 24.3514485 66"/>
                <polygon id="el_ubC2fYzMO4x" points="33 68 37.6377719 68 35.6263389 66 33.3514485 66"/>
            </g>
            <path d="M96.2673748,30.6996498 C97.5375929,31.6954646 98.1093965,32.4912005 97.9827857,33.0868575 C97.8919516,33.5141984 97.5938303,33.908453 97.2191889,34.1558577 C97.2738106,36.5150763 96.1276393,38.5521371 94.2451932,39.0919199 C91.8795234,39.7702648 88.3328261,38.1887133 87.4509778,35.1133426 C86.5691295,32.037972 88.6860681,28.6333625 91.0517378,27.9550176 C92.9753917,27.4034188 95.0755673,28.5852188 96.2673748,30.6996498 Z" id="el_4lOMuk6F6Ev"/>
            <g id="el__BIIOoMrnhD_an_Bg46Ia3KL" data-animator-group="true" data-animator-type="1"><path d="M92.0784449,38.4427834 C93.0688481,38.8272367 94.5948741,38.8949582 95.2022153,38.2712511 C95.900154,37.5545053 95.5833889,36.0473149 94.8550434,35.7045492 C93.2577982,35.1357393 93.944717,33.1407824 95.9713828,33.8386195 C97.9980487,34.5364565 101.665322,32.3248645 101.324551,30.5250819 C100.983779,28.7252992 97.7411467,27.0049251 95.3214556,27.6301065 C92.9017645,28.255288 91.1409269,28.9899923 89.973246,32.3811839 C88.8055651,35.7723754 89.9869017,37.6308911 92.0784449,38.4427834 Z" id="el__BIIOoMrnhD"/></g>
        </g>
    </g>
</svg>