<svg width="111" height="100" viewBox="0 0 111 100" version="1.1" xmlns="http://www.w3.org/2000/svg" xmlns:xlink="http://www.w3.org/1999/xlink" id="el_JRPeolNFr"><style>@-webkit-keyframes kf_el_k7lqIZ3f35__an_hRH-gzRZ4{0%{-webkit-transform: translate(37.72883701324463px, 3.002628803253174px) rotate(0deg) translate(-37.72883701324463px, -3.002628803253174px);transform: translate(37.72883701324463px, 3.002628803253174px) rotate(0deg) translate(-37.72883701324463px, -3.002628803253174px);}16.67%{-webkit-transform: translate(37.72883701324463px, 3.002628803253174px) rotate(2deg) translate(-37.72883701324463px, -3.002628803253174px);transform: translate(37.72883701324463px, 3.002628803253174px) rotate(2deg) translate(-37.72883701324463px, -3.002628803253174px);}33.33%{-webkit-transform: translate(37.72883701324463px, 3.002628803253174px) rotate(0deg) translate(-37.72883701324463px, -3.002628803253174px);transform: translate(37.72883701324463px, 3.002628803253174px) rotate(0deg) translate(-37.72883701324463px, -3.002628803253174px);}50%{-webkit-transform: translate(37.72883701324463px, 3.002628803253174px) rotate(2deg) translate(-37.72883701324463px, -3.002628803253174px);transform: translate(37.72883701324463px, 3.002628803253174px) rotate(2deg) translate(-37.72883701324463px, -3.002628803253174px);}66.67%{-webkit-transform: translate(37.72883701324463px, 3.002628803253174px) rotate(0deg) translate(-37.72883701324463px, -3.002628803253174px);transform: translate(37.72883701324463px, 3.002628803253174px) rotate(0deg) translate(-37.72883701324463px, -3.002628803253174px);}83.33%{-webkit-transform: translate(37.72883701324463px, 3.002628803253174px) rotate(2deg) translate(-37.72883701324463px, -3.002628803253174px);transform: translate(37.72883701324463px, 3.002628803253174px) rotate(2deg) translate(-37.72883701324463px, -3.002628803253174px);}100%{-webkit-transform: translate(37.72883701324463px, 3.002628803253174px) rotate(0deg) translate(-37.72883701324463px, -3.002628803253174px);transform: translate(37.72883701324463px, 3.002628803253174px) rotate(0deg) translate(-37.72883701324463px, -3.002628803253174px);}}@keyframes kf_el_k7lqIZ3f35__an_hRH-gzRZ4{0%{-webkit-transform: translate(37.72883701324463px, 3.002628803253174px) rotate(0deg) translate(-37.72883701324463px, -3.002628803253174px);transform: translate(37.72883701324463px, 3.002628803253174px) rotate(0deg) translate(-37.72883701324463px, -3.002628803253174px);}16.67%{-webkit-transform: translate(37.72883701324463px, 3.002628803253174px) rotate(2deg) translate(-37.72883701324463px, -3.002628803253174px);transform: translate(37.72883701324463px, 3.002628803253174px) rotate(2deg) translate(-37.72883701324463px, -3.002628803253174px);}33.33%{-webkit-transform: translate(37.72883701324463px, 3.002628803253174px) rotate(0deg) translate(-37.72883701324463px, -3.002628803253174px);transform: translate(37.72883701324463px, 3.002628803253174px) rotate(0deg) translate(-37.72883701324463px, -3.002628803253174px);}50%{-webkit-transform: translate(37.72883701324463px, 3.002628803253174px) rotate(2deg) translate(-37.72883701324463px, -3.002628803253174px);transform: translate(37.72883701324463px, 3.002628803253174px) rotate(2deg) translate(-37.72883701324463px, -3.002628803253174px);}66.67%{-webkit-transform: translate(37.72883701324463px, 3.002628803253174px) rotate(0deg) translate(-37.72883701324463px, -3.002628803253174px);transform: translate(37.72883701324463px, 3.002628803253174px) rotate(0deg) translate(-37.72883701324463px, -3.002628803253174px);}83.33%{-webkit-transform: translate(37.72883701324463px, 3.002628803253174px) rotate(2deg) translate(-37.72883701324463px, -3.002628803253174px);transform: translate(37.72883701324463px, 3.002628803253174px) rotate(2deg) translate(-37.72883701324463px, -3.002628803253174px);}100%{-webkit-transform: translate(37.72883701324463px, 3.002628803253174px) rotate(0deg) translate(-37.72883701324463px, -3.002628803253174px);transform: translate(37.72883701324463px, 3.002628803253174px) rotate(0deg) translate(-37.72883701324463px, -3.002628803253174px);}}@-webkit-keyframes kf_el_AYVsD6t0A9T_an_MHTxxYZ75{0%{-webkit-transform: translate(29px, 63px) rotate(5deg) translate(-29px, -63px);transform: translate(29px, 63px) rotate(5deg) translate(-29px, -63px);}25%{-webkit-transform: translate(29px, 63px) rotate(-5deg) translate(-29px, -63px);transform: translate(29px, 63px) rotate(-5deg) translate(-29px, -63px);}50%{-webkit-transform: translate(29px, 63px) rotate(5deg) translate(-29px, -63px);transform: translate(29px, 63px) rotate(5deg) translate(-29px, -63px);}75%{-webkit-transform: translate(29px, 63px) rotate(-5deg) translate(-29px, -63px);transform: translate(29px, 63px) rotate(-5deg) translate(-29px, -63px);}100%{-webkit-transform: translate(29px, 63px) rotate(5deg) translate(-29px, -63px);transform: translate(29px, 63px) rotate(5deg) translate(-29px, -63px);}}@keyframes kf_el_AYVsD6t0A9T_an_MHTxxYZ75{0%{-webkit-transform: translate(29px, 63px) rotate(5deg) translate(-29px, -63px);transform: translate(29px, 63px) rotate(5deg) translate(-29px, -63px);}25%{-webkit-transform: translate(29px, 63px) rotate(-5deg) translate(-29px, -63px);transform: translate(29px, 63px) rotate(-5deg) translate(-29px, -63px);}50%{-webkit-transform: translate(29px, 63px) rotate(5deg) translate(-29px, -63px);transform: translate(29px, 63px) rotate(5deg) translate(-29px, -63px);}75%{-webkit-transform: translate(29px, 63px) rotate(-5deg) translate(-29px, -63px);transform: translate(29px, 63px) rotate(-5deg) translate(-29px, -63px);}100%{-webkit-transform: translate(29px, 63px) rotate(5deg) translate(-29px, -63px);transform: translate(29px, 63px) rotate(5deg) translate(-29px, -63px);}}@-webkit-keyframes kf_el_Apk665cyLE_an_L67bC8LBG{0%{-webkit-transform: translate(19.75px, 83.00000000000068px) rotate(-5deg) translate(-19.75px, -83.00000000000068px);transform: translate(19.75px, 83.00000000000068px) rotate(-5deg) translate(-19.75px, -83.00000000000068px);}25%{-webkit-transform: translate(19.75px, 83.00000000000068px) rotate(5deg) translate(-19.75px, -83.00000000000068px);transform: translate(19.75px, 83.00000000000068px) rotate(5deg) translate(-19.75px, -83.00000000000068px);}50%{-webkit-transform: translate(19.75px, 83.00000000000068px) rotate(-5deg) translate(-19.75px, -83.00000000000068px);transform: translate(19.75px, 83.00000000000068px) rotate(-5deg) translate(-19.75px, -83.00000000000068px);}75%{-webkit-transform: translate(19.75px, 83.00000000000068px) rotate(5deg) translate(-19.75px, -83.00000000000068px);transform: translate(19.75px, 83.00000000000068px) rotate(5deg) translate(-19.75px, -83.00000000000068px);}100%{-webkit-transform: translate(19.75px, 83.00000000000068px) rotate(-5deg) translate(-19.75px, -83.00000000000068px);transform: translate(19.75px, 83.00000000000068px) rotate(-5deg) translate(-19.75px, -83.00000000000068px);}}@keyframes kf_el_Apk665cyLE_an_L67bC8LBG{0%{-webkit-transform: translate(19.75px, 83.00000000000068px) rotate(-5deg) translate(-19.75px, -83.00000000000068px);transform: translate(19.75px, 83.00000000000068px) rotate(-5deg) translate(-19.75px, -83.00000000000068px);}25%{-webkit-transform: translate(19.75px, 83.00000000000068px) rotate(5deg) translate(-19.75px, -83.00000000000068px);transform: translate(19.75px, 83.00000000000068px) rotate(5deg) translate(-19.75px, -83.00000000000068px);}50%{-webkit-transform: translate(19.75px, 83.00000000000068px) rotate(-5deg) translate(-19.75px, -83.00000000000068px);transform: translate(19.75px, 83.00000000000068px) rotate(-5deg) translate(-19.75px, -83.00000000000068px);}75%{-webkit-transform: translate(19.75px, 83.00000000000068px) rotate(5deg) translate(-19.75px, -83.00000000000068px);transform: translate(19.75px, 83.00000000000068px) rotate(5deg) translate(-19.75px, -83.00000000000068px);}100%{-webkit-transform: translate(19.75px, 83.00000000000068px) rotate(-5deg) translate(-19.75px, -83.00000000000068px);transform: translate(19.75px, 83.00000000000068px) rotate(-5deg) translate(-19.75px, -83.00000000000068px);}}#el_JRPeolNFr *{-webkit-animation-duration: 2s;animation-duration: 2s;-webkit-animation-iteration-count: infinite;animation-iteration-count: infinite;-webkit-animation-timing-function: cubic-bezier(0, 0, 1, 1);animation-timing-function: cubic-bezier(0, 0, 1, 1);}#el_2B8fmInaDK{stroke: none;stroke-width: 1;fill: none;}#el_YsvGLlYtGp{fill: #93CDFF;}#el_m9s9RxqRwl{fill: #BEE1FF;}#el_r3XtiTS6p5{fill: #D8EDFF;}#el__gYuhGTvaL{fill: #E7F4FF;}#el_XYdj80IwkR{fill: url(#linearGradient-1);}#el_yNcI9G4b0l{fill: url(#linearGradient-2);}#el_ucCgLyBPko{fill: #E6E6E6;}#el_Apk665cyLE{-webkit-transform: translate(14px, 65px);transform: translate(14px, 65px);stroke: #0189FF;stroke-width: 3;}#el_t-sDifbB5-{-webkit-transform: translate(4.5px, 0px) scale(-1, 1);transform: translate(4.5px, 0px) scale(-1, 1);}#el_AYVsD6t0A9T{-webkit-transform: translate(25px, 49px);transform: translate(25px, 49px);stroke: #0189FF;stroke-width: 2;}#el_x5mGFToXJKz{-webkit-transform: translate(9px, 6px) rotate(90deg);transform: translate(9px, 6px) rotate(90deg);}#el_cn-QH5yy3ES{fill: #F8F8F8;}#el_8uF_fqp4lu5{stroke: #E6E6E6;stroke-width: 2;}#el_dAfgDio90dE{stroke: #E6E6E6;stroke-width: 2;}#el_EhPu8cW33Cy{stroke: #E6E6E6;stroke-width: 2;}#el_YSpPx6_mYJX{fill: url(#linearGradient-3);-webkit-transform: translate(173.497802px, 0px) scale(-1, 1);transform: translate(173.497802px, 0px) scale(-1, 1);}#el_ueRrS8jCt1l{-webkit-transform: translate(85px, 62px) scale(-1, 1);transform: translate(85px, 62px) scale(-1, 1);}#el_Kb4a7Ykxovd{fill: url(#linearGradient-3);}#el_rFkupszN9iR{fill: #2F2F2F;}#el_dcUygx1ovJK{-webkit-transform: translate(100.42062985081499px, 32.954090517435px) scale(-1, 1) rotate(11deg);transform: translate(100.42062985081499px, 32.954090517435px) scale(-1, 1) rotate(11deg);}#el_MoOCNjRz9fP{fill: #FCB08E;-webkit-transform: translate(33.95428402403751px, 17.674272938802304px) rotate(102deg);transform: translate(33.95428402403751px, 17.674272938802304px) rotate(102deg);}#el_xpumsaZWdDn{fill: url(#linearGradient-4);-webkit-transform: translate(-3.995859435110063px, 5.888968483671945px) rotate(-14deg);transform: translate(-3.995859435110063px, 5.888968483671945px) rotate(-14deg);}#el_KfaBq_Mqy61{-webkit-transform: translate(19px, 3px);transform: translate(19px, 3px);}#el_HsOQRBbTuXC{fill: #FCB08E;-webkit-transform: translate(14.992031424681976px, -3.1378935206945613px) rotate(-309deg);transform: translate(14.992031424681976px, -3.1378935206945613px) rotate(-309deg);}#el_3P1vuRy3PzG{fill: url(#linearGradient-5);-webkit-transform: translate(2.642005400031019px, -1.8833529140308105px) rotate(17deg);transform: translate(2.642005400031019px, -1.8833529140308105px) rotate(17deg);}#el_TmHq2AicPnd{-webkit-transform: translate(115.00000022935px, 22.39597963413px) scale(-1, 1) rotate(-2deg);transform: translate(115.00000022935px, 22.39597963413px) scale(-1, 1) rotate(-2deg);}#el_W_wrvM91fIj{fill: #FCB08E;}#el_k7lqIZ3f35_{fill: #0189FF;-webkit-transform: translate(-2.1511761712819535px, 2.609632497094772px) rotate(-7deg);transform: translate(-2.1511761712819535px, 2.609632497094772px) rotate(-7deg);}#el_TyK18ONpfLl{fill: #2F2F2F;-webkit-transform: translate(171.362228px, 0px) scale(-1, 1);transform: translate(171.362228px, 0px) scale(-1, 1);}#el_Apk665cyLE_an_L67bC8LBG{-webkit-animation-fill-mode: backwards;animation-fill-mode: backwards;-webkit-transform: translate(19.75px, 83.00000000000068px) rotate(-5deg) translate(-19.75px, -83.00000000000068px);transform: translate(19.75px, 83.00000000000068px) rotate(-5deg) translate(-19.75px, -83.00000000000068px);-webkit-animation-name: kf_el_Apk665cyLE_an_L67bC8LBG;animation-name: kf_el_Apk665cyLE_an_L67bC8LBG;-webkit-animation-timing-function: cubic-bezier(0.42, 0, 0.58, 1);animation-timing-function: cubic-bezier(0.42, 0, 0.58, 1);}#el_AYVsD6t0A9T_an_MHTxxYZ75{-webkit-animation-fill-mode: backwards;animation-fill-mode: backwards;-webkit-transform: translate(29px, 63px) rotate(5deg) translate(-29px, -63px);transform: translate(29px, 63px) rotate(5deg) translate(-29px, -63px);-webkit-animation-name: kf_el_AYVsD6t0A9T_an_MHTxxYZ75;animation-name: kf_el_AYVsD6t0A9T_an_MHTxxYZ75;-webkit-animation-timing-function: cubic-bezier(0.42, 0, 0.58, 1);animation-timing-function: cubic-bezier(0.42, 0, 0.58, 1);}#el_k7lqIZ3f35__an_hRH-gzRZ4{-webkit-animation-fill-mode: backwards;animation-fill-mode: backwards;-webkit-transform: translate(37.72883701324463px, 3.002628803253174px) rotate(0deg) translate(-37.72883701324463px, -3.002628803253174px);transform: translate(37.72883701324463px, 3.002628803253174px) rotate(0deg) translate(-37.72883701324463px, -3.002628803253174px);-webkit-animation-name: kf_el_k7lqIZ3f35__an_hRH-gzRZ4;animation-name: kf_el_k7lqIZ3f35__an_hRH-gzRZ4;-webkit-animation-timing-function: cubic-bezier(0.42, 0, 0.58, 1);animation-timing-function: cubic-bezier(0.42, 0, 0.58, 1);}</style>
    <!-- Generator: Sketch 53.2 (72643) - https://sketchapp.com -->
    <title>Actividad no disponible</title>
    <desc>Created with Sketch.</desc>
    <defs>
        <linearGradient x1="50%" y1="23.1164455%" x2="50%" y2="110.586888%" id="linearGradient-1">
            <stop stop-color="#A3A3A3" offset="0%"/>
            <stop stop-color="#575757" offset="100%"/>
        </linearGradient>
        <linearGradient x1="50%" y1="23.1164455%" x2="50%" y2="100%" id="linearGradient-2">
            <stop stop-color="#A3A3A3" offset="0%"/>
            <stop stop-color="#575757" offset="100%"/>
        </linearGradient>
        <linearGradient x1="45.8142232%" y1="21.1904792%" x2="56.0768526%" y2="75.296077%" id="linearGradient-3">
            <stop stop-color="#00559F" offset="0%"/>
            <stop stop-color="#0189FF" offset="100%"/>
        </linearGradient>
        <linearGradient x1="50%" y1="0%" x2="50%" y2="100%" id="linearGradient-4">
            <stop stop-color="#900000" offset="0%"/>
            <stop stop-color="#CC0000" offset="100%"/>
        </linearGradient>
        <linearGradient x1="-46.8842115%" y1="16.4540271%" x2="50%" y2="100%" id="linearGradient-5">
            <stop stop-color="#900000" offset="0%"/>
            <stop stop-color="#CC0000" offset="100%"/>
        </linearGradient>
    </defs>
    <g id="el_2B8fmInaDK" fill-rule="evenodd">
        <g id="el_YFbdiPCQKi">
            <g id="el_6D-bC5nVg3">
                <g id="el_qihsRUacp7">
                    <circle id="el_YsvGLlYtGp" cx="50" cy="50" r="50"/>
                    <path d="M84.4113362,13.7250671 C83.8721035,16.6250083 80.8966668,19.1246053 75.4850261,21.2238584 C47.3678733,32.1309049 54.4135044,52.9842065 34.7241118,63.3187907 C23.0569367,69.4426668 11.9412746,68.9041052 1.37712536,61.7031058 C0.476820569,57.9489955 0,54.0301815 0,50 C0,22.3857625 22.3857625,0 50,0 C63.3331158,0 75.44732,5.21878114 84.4113362,13.7250671 Z" id="el_m9s9RxqRwl"/>
                    <path d="M7.99135064e-13,48.5176343 C0.784049141,21.5890633 22.8600499,0 49.9784467,0 C59.5744489,0 68.5390729,2.70325154 76.1523385,7.38977455 C74.7453053,8.68187049 72.6625874,9.86293041 69.9041848,10.9329543 C43.565244,21.1502069 50.1652885,40.684684 31.7211113,50.3656785 C20.6138092,56.1956881 10.0401054,55.5796734 7.43405337e-13,48.5176343 Z" id="el_r3XtiTS6p5"/>
                    <path d="M2.6,34.0615856 C9.25410068,14.2622427 27.964469,0 50.0059626,0 C53.8901464,0 57.6708855,0.442899641 61.3004325,1.28095163 C42.5109744,10.9990721 46.6582553,27.0535391 30.9527476,35.2970586 C21.0369043,40.5016944 11.5859884,40.08987 2.6,34.0615856 Z" id="el__gYuhGTvaL"/>
                </g>
            </g>
            <path d="M2,57.2391431 C8.03419123,47.0797144 12.3986585,42 15.0934018,42 C19.1355168,42 20.528809,50.1421471 27.315512,50.1421471 C30.8147864,50.1421471 32.205804,44.717239 37.581318,44.717239 C42.9568319,44.717239 49.5222061,57.7568385 50.6621788,57.2391431 C52.0167912,56.6239733 47.6565043,56.6788556 37.581318,57.4037899 L27.315512,59.9602828 L12.9545849,60.325436 L2,57.2391431 Z" id="el_XYdj80IwkR"/>
            <path d="M50,57.2391431 C55.7719965,41.0797144 60.4697971,33 64.0934018,33 C69.528809,33 69.528809,41.1421471 76.315512,41.1421471 C79.8147864,41.1421471 81.205804,35.717239 86.581318,35.717239 C91.9568319,35.717239 98.5222061,57.7568385 99.6621788,57.2391431 C101.016791,56.6239733 96.6565043,56.6788556 86.581318,57.4037899 L76.315512,59.9602828 L61.9545849,60.325436 L50,57.2391431 Z" id="el_yNcI9G4b0l"/>
            <path d="M0.3,55.9 L99.5874001,55.9 C96.6232666,80.6853599 75.5273932,99.9 49.9437001,99.9 C24.360007,99.9 3.26413353,80.6853599 0.3,55.9 Z" id="el_ucCgLyBPko"/>
            <g id="el_Apk665cyLE_an_L67bC8LBG" data-animator-group="true" data-animator-type="1"><g id="el_Apk665cyLE" stroke-linecap="round">
                <path d="M5.41305916,2.5 L5.41305916,18" id="el_2WyJIwLkIW"/>
                <path d="M11.5,5 L11.5,9 C11.5,11.4852814 9.48528137,13.5 7,13.5" id="el_seixEog98D"/>
                <path d="M4.5,6.82121026e-13 L4.5,9 C4.5,11.4852814 2.48528137,13.5 0,13.5" id="el_t-sDifbB5-"/>
            </g></g>
            <g id="el_AYVsD6t0A9T_an_MHTxxYZ75" data-animator-group="true" data-animator-type="1"><g id="el_AYVsD6t0A9T" stroke-linecap="round">
                <path d="M3.70652958,3.34375 L3.70652958,14" id="el_OOA0ImaR9Y1"/>
                <path d="M8,0 L8,2.82352941 C8,4.57784568 6.65685425,6 5,6" id="el_0DMDPmSZuAF"/>
                <path d="M3,6 C3,7.65685425 1.65685425,9 0,9" id="el_x5mGFToXJKz"/>
            </g></g>
            <path d="M33,96.9257278 L42.3013018,56 L56.3013018,56 L65.7486124,97.5681669 C60.8838792,99.1468372 55.6922239,100 50.3013018,100 C44.219488,100 38.3912893,98.9141445 33,96.9257278 Z" id="el_cn-QH5yy3ES"/>
            <path d="M49,57.8245103 L49,65.3245103" id="el_8uF_fqp4lu5" stroke-linecap="round"/>
            <path d="M49,69.8245103 L49,80.2692464" id="el_dAfgDio90dE" stroke-linecap="round"/>
            <path d="M49,83.8245103 L49,96.6490205" id="el_EhPu8cW33Cy" stroke-linecap="round"/>
            <path d="M80,67.7923297 C81.9332016,72.9836637 83.380211,78.0701755 84.3410282,83.0518652 C85.3018454,88.0335548 85.9050704,93.5771932 86.1507031,99.6827803 L87.9274022,99.6827803 C89.9732301,91.7917263 91.3141706,85.7518977 91.9502236,81.5632946 C92.5862766,77.3746914 93.1021359,71.1869266 93.4978015,63 L80,67.7923297 Z" id="el_YSpPx6_mYJX"/>
            <g id="el_ueRrS8jCt1l">
                <path d="M0.502198474,4.7923297 C2.43540008,9.98366372 3.88240949,15.0701755 4.8432267,20.0518652 C5.80404391,25.0335548 6.40726885,30.5771932 6.65290153,36.6827803 L8.42960065,36.6827803 C10.4754286,28.7917263 11.8163691,22.7518977 12.4524221,18.5632946 C13.088475,14.3746914 13.6043344,8.18692655 14,-9.59232693e-14 L0.502198474,4.7923297 Z" id="el_Kb4a7Ykxovd"/>
                <polygon id="el_rFkupszN9iR" points="6 38 10.6377719 38 8.62633889 36 6.63511628 35.9823411"/>
            </g>
            <g id="el_dcUygx1ovJK">
                <path d="M0.421463155,15.4017499 C3.19127304,15.5182825 5.32740694,16.3522698 6.82986483,17.9037119 C9.08355168,20.2308751 11.1807917,22.9082204 13.8424511,22.9082204 C16.5041104,22.9082204 19.4739383,21.2266761 20.2485136,21.3894344 C21.023089,21.5521927 21.2564052,22.9013406 19.2462635,24.8192929 C17.2361218,26.7372452 13.8424511,29.7907783 6.61617806,29.7907783 C6.61617806,29.7907783 -5.39893375,14.7173662 0.421463155,15.4017499 Z" id="el_MoOCNjRz9fP"/>
                <path d="M31.5415418,17.1479882 C31.5415418,17.1479882 35.421114,29.2338215 36.5500604,29.8848934 C33.5765549,31.9322235 30.4549569,33.1792866 27.1060273,33.862255 C21.8349142,34.9372263 14.2114355,35.5372059 7.50497063,34.738134 C6.7895745,29.1326501 10.5904483,18.9645542 11.4901592,15.1133856 C13.5742074,6.19271804 17.7639147,2.72642826 23.5843116,3.41081199 C26.3541215,3.52734453 28.7694469,5.4500358 30.2719048,7.00147792 C30.8841654,7.63369987 32.1770943,17.1479882 31.5415418,17.1479882 Z" id="el_xpumsaZWdDn"/>
                <g id="el_KfaBq_Mqy61">
                    <path d="M3.62706418,8.48936663 C6.39687406,8.60589916 7.97381505,10.2689241 9.47627295,11.8203662 C11.7299598,14.1475293 14.3863928,15.9958371 17.0480521,15.9958371 C19.7097114,15.9958371 21.517013,15.7760785 19.5068713,17.6940308 C17.4967296,19.6119831 12.9126277,20.1734149 10.1902628,19.6378378 C7.46789783,19.1022607 5.28432695,19.1461937 3.12675602,15.8227642 C0.525373852,11.8157069 0.445465952,8.11526257 3.62706418,8.48936663 Z" id="el_HsOQRBbTuXC"/>
                    <path d="M4.59498812,13.7126408 C6.569381,13.3637985 8.32372161,12.5873998 9.85800996,11.3834447 C11.3922983,10.1794895 12.4927976,9.0991843 13.1595079,8.14252905 C11.2597283,4.8035129 8.49784255,2.80707671 4.8738505,2.15322047 C1.24985846,1.49936424 1.15690433,5.35250435 4.59498812,13.7126408 Z" id="el_3P1vuRy3PzG"/>
                </g>
            </g>
            <g id="el_TmHq2AicPnd">
                <path d="M36.1915017,8.87969629 C37.4617198,9.87551112 38.0335234,10.671247 37.9069126,11.2669039 C37.8160785,11.6942449 37.5179573,12.0884994 37.1433158,12.3359042 C37.1979375,14.6951228 36.0517663,16.7321836 34.1693201,17.2719664 C31.8036504,17.9503113 28.2569531,16.3687597 27.3751047,13.2933891 C26.4932564,10.2180185 28.610195,6.813409 30.9758647,6.13506413 C32.8995187,5.58346524 34.9996943,6.76526533 36.1915017,8.87969629 Z" id="el_W_wrvM91fIj"/>
                <g id="el_k7lqIZ3f35__an_hRH-gzRZ4" data-animator-group="true" data-animator-type="1"><path d="M31.6106937,17.0799248 C29.8147846,16.4403667 26.4789461,13.7734909 30.6107109,14.0471476 C34.7424757,14.3208042 38.4490447,9.5641194 37.608942,7.49744409 C36.7688392,5.43076878 33.6016631,3.00262871 29.5015188,3.00262871 C25.4013746,3.00262871 22.3043401,6.50784272 21.2852965,9.0183044 C20.2662528,11.5287661 17.9278967,15.7096688 13.7006284,15.3718244 C9.47336011,15.0339801 2.16977444,18.511937 2.82883113,24.9626822 C3.48788782,31.4134274 10.0777352,35.9618299 16.4500556,34.5058135 C22.8223759,33.0497971 37.6180582,19.9070423 31.6106937,17.0799248 Z" id="el_k7lqIZ3f35_"/></g>
            </g>
            <polygon id="el_TyK18ONpfLl" points="83.3622281 100 88 100 85.988567 98 83.7136766 98"/>
        </g>
    </g>
</svg>