<svg width="111" height="106" viewBox="0 0 111 106" version="1.1" xmlns="http://www.w3.org/2000/svg" xmlns:xlink="http://www.w3.org/1999/xlink" id="el_rLhfMrBA3"><style>@-webkit-keyframes kf_el_TXurq1G7I8N_an_R94Z1l7Tq{0%{-webkit-transform: translate(32.23267364501953px, 48.97306442260742px) translate(-32.23267364501953px, -48.97306442260742px) translate(2px, 0px);transform: translate(32.23267364501953px, 48.97306442260742px) translate(-32.23267364501953px, -48.97306442260742px) translate(2px, 0px);}100%{-webkit-transform: translate(32.23267364501953px, 48.97306442260742px) translate(-32.23267364501953px, -48.97306442260742px) translate(2px, 0px);transform: translate(32.23267364501953px, 48.97306442260742px) translate(-32.23267364501953px, -48.97306442260742px) translate(2px, 0px);}}@keyframes kf_el_TXurq1G7I8N_an_R94Z1l7Tq{0%{-webkit-transform: translate(32.23267364501953px, 48.97306442260742px) translate(-32.23267364501953px, -48.97306442260742px) translate(2px, 0px);transform: translate(32.23267364501953px, 48.97306442260742px) translate(-32.23267364501953px, -48.97306442260742px) translate(2px, 0px);}100%{-webkit-transform: translate(32.23267364501953px, 48.97306442260742px) translate(-32.23267364501953px, -48.97306442260742px) translate(2px, 0px);transform: translate(32.23267364501953px, 48.97306442260742px) translate(-32.23267364501953px, -48.97306442260742px) translate(2px, 0px);}}@-webkit-keyframes kf_el_jItdXrawvue_an_y482HcCnP{0%{-webkit-transform: translate(29.824878692626953px, 47.28550338745117px) translate(-29.824878692626953px, -47.28550338745117px) translate(2px, 0px);transform: translate(29.824878692626953px, 47.28550338745117px) translate(-29.824878692626953px, -47.28550338745117px) translate(2px, 0px);}100%{-webkit-transform: translate(29.824878692626953px, 47.28550338745117px) translate(-29.824878692626953px, -47.28550338745117px) translate(2px, 0px);transform: translate(29.824878692626953px, 47.28550338745117px) translate(-29.824878692626953px, -47.28550338745117px) translate(2px, 0px);}}@keyframes kf_el_jItdXrawvue_an_y482HcCnP{0%{-webkit-transform: translate(29.824878692626953px, 47.28550338745117px) translate(-29.824878692626953px, -47.28550338745117px) translate(2px, 0px);transform: translate(29.824878692626953px, 47.28550338745117px) translate(-29.824878692626953px, -47.28550338745117px) translate(2px, 0px);}100%{-webkit-transform: translate(29.824878692626953px, 47.28550338745117px) translate(-29.824878692626953px, -47.28550338745117px) translate(2px, 0px);transform: translate(29.824878692626953px, 47.28550338745117px) translate(-29.824878692626953px, -47.28550338745117px) translate(2px, 0px);}}@-webkit-keyframes kf_el_lo2il_9DFME_an_k9mR0XFfU{0%{-webkit-transform: translate(12.5px, 12.5px) scale(0.9, 0.9) translate(-12.5px, -12.5px);transform: translate(12.5px, 12.5px) scale(0.9, 0.9) translate(-12.5px, -12.5px);}7.58%{-webkit-transform: translate(12.5px, 12.5px) scale(1, 1) translate(-12.5px, -12.5px);transform: translate(12.5px, 12.5px) scale(1, 1) translate(-12.5px, -12.5px);}16.67%{-webkit-transform: translate(12.5px, 12.5px) scale(0.95, 0.95) translate(-12.5px, -12.5px);transform: translate(12.5px, 12.5px) scale(0.95, 0.95) translate(-12.5px, -12.5px);}22.73%{-webkit-transform: translate(12.5px, 12.5px) scale(1, 1) translate(-12.5px, -12.5px);transform: translate(12.5px, 12.5px) scale(1, 1) translate(-12.5px, -12.5px);}100%{-webkit-transform: translate(12.5px, 12.5px) scale(1, 1) translate(-12.5px, -12.5px);transform: translate(12.5px, 12.5px) scale(1, 1) translate(-12.5px, -12.5px);}}@keyframes kf_el_lo2il_9DFME_an_k9mR0XFfU{0%{-webkit-transform: translate(12.5px, 12.5px) scale(0.9, 0.9) translate(-12.5px, -12.5px);transform: translate(12.5px, 12.5px) scale(0.9, 0.9) translate(-12.5px, -12.5px);}7.58%{-webkit-transform: translate(12.5px, 12.5px) scale(1, 1) translate(-12.5px, -12.5px);transform: translate(12.5px, 12.5px) scale(1, 1) translate(-12.5px, -12.5px);}16.67%{-webkit-transform: translate(12.5px, 12.5px) scale(0.95, 0.95) translate(-12.5px, -12.5px);transform: translate(12.5px, 12.5px) scale(0.95, 0.95) translate(-12.5px, -12.5px);}22.73%{-webkit-transform: translate(12.5px, 12.5px) scale(1, 1) translate(-12.5px, -12.5px);transform: translate(12.5px, 12.5px) scale(1, 1) translate(-12.5px, -12.5px);}100%{-webkit-transform: translate(12.5px, 12.5px) scale(1, 1) translate(-12.5px, -12.5px);transform: translate(12.5px, 12.5px) scale(1, 1) translate(-12.5px, -12.5px);}}@-webkit-keyframes kf_el_ctD3Bq5up7w_an_Fv6L5L6EI8{0%{stroke-dasharray: 17.29;}22.73%{stroke-dasharray: 17.29;}68.18%{stroke-dasharray: 17.29;}100%{stroke-dasharray: 17.29;}}@keyframes kf_el_ctD3Bq5up7w_an_Fv6L5L6EI8{0%{stroke-dasharray: 17.29;}22.73%{stroke-dasharray: 17.29;}68.18%{stroke-dasharray: 17.29;}100%{stroke-dasharray: 17.29;}}@-webkit-keyframes kf_el_ctD3Bq5up7w_an_PX-mjxVQk{0%{stroke-dashoffset: 17.29;}22.73%{stroke-dashoffset: 0;}68.18%{stroke-dashoffset: 0;}100%{stroke-dashoffset: 0;}}@keyframes kf_el_ctD3Bq5up7w_an_PX-mjxVQk{0%{stroke-dashoffset: 17.29;}22.73%{stroke-dashoffset: 0;}68.18%{stroke-dashoffset: 0;}100%{stroke-dashoffset: 0;}}#el_rLhfMrBA3 *{-webkit-animation-duration: 2.2s;animation-duration: 2.2s;-webkit-animation-iteration-count: infinite;animation-iteration-count: infinite;-webkit-animation-timing-function: cubic-bezier(0, 0, 1, 1);animation-timing-function: cubic-bezier(0, 0, 1, 1);}#el_i8IKd-2Hs_{stroke: none;stroke-width: 1;fill: none;}#el_ZJ2ioNS8-m{-webkit-transform: translate(0px, 6px);transform: translate(0px, 6px);}#el_usXTz3hhyX{fill: #93CDFF;}#el_MTxgtNdtOG{fill: #BEE1FF;}#el_1eWZfkkRQJ{fill: #D8EDFF;}#el_myFVrekSej{fill: #E7F4FF;}#el_Rtd9vOxhBZ{fill: url(#linearGradient-1);-webkit-transform: translate(84.402972px, 0px) scale(-1, 1);transform: translate(84.402972px, 0px) scale(-1, 1);}#el_4jTclvLQi-{fill: url(#linearGradient-1);-webkit-transform: translate(66.402972px, 0px) scale(-1, 1);transform: translate(66.402972px, 0px) scale(-1, 1);}#el_cBkClW0RPb{-webkit-transform: translate(28.177204116844997px, 25.974546233285px) rotate(11deg);transform: translate(28.177204116844997px, 25.974546233285px) rotate(11deg);}#el_jTkhRWscO-{-webkit-transform: translate(27.644869441580003px, 33.56952724914px) rotate(-150deg);transform: translate(27.644869441580003px, 33.56952724914px) rotate(-150deg);}#el_L4IeY7YzkL{-webkit-transform: translate(0px, 0px);transform: translate(0px, 0px);}#el_L_aCmPQ9-3{fill: #FCB08E;-webkit-transform: translate(15.4822067925074px, -3.086461550536958px) rotate(-309deg);transform: translate(15.4822067925074px, -3.086461550536958px) rotate(-309deg);}#el_bcRK-Nj77b{fill: url(#linearGradient-2);-webkit-transform: translate(2.617533336842521px, -1.9491245157560506px) rotate(17deg);transform: translate(2.617533336842521px, -1.9491245157560506px) rotate(17deg);}#el_Qv6yt44bei{fill: url(#linearGradient-3);-webkit-transform: translate(-7.47154696718604px, 5.415387146914288px) rotate(-14deg);transform: translate(-7.47154696718604px, 5.415387146914288px) rotate(-14deg);}#el_f0WYWcO2UiU{fill: #2F2F2F;}#el_avAf2Ovj3QO{fill: #2F2F2F;}#el_Jy0Tvs6OWPc{fill: url(#linearGradient-4);}#el_F-S3FolIRUX{fill: #0189FF;}#el_7oeTkvjCRYS{fill: #0189FF;}#el_yhjJ_gpcdd3{fill: #0189FF;}#el_71iDYChYqgT{fill: #0189FF;}#el__YxGc9QgHWj{fill: #0189FF;}#el_KhSqsYv2GyL{fill: #0189FF;}#el_rhUak94JSP5{stroke: #FFFFFF;stroke-width: 3;fill: #0189FF;}#el_9GvWv3P0ypE{stroke: #FFFFFF;stroke-width: 3;fill: #0189FF;}#el_QaTAkxjP2-_{stroke: #FFFFFF;stroke-width: 3;fill: #0189FF;}#el_K0NnB23YehK{fill: #999999;}#el_fNTvvuv99FA{-webkit-transform: translate(63px, 65px);transform: translate(63px, 65px);}#el_lo2il_9DFME{fill: #60798E;}#el_ctD3Bq5up7w{stroke: #FFFFFF;stroke-width: 3;-webkit-animation-fill-mode: backwards, backwards;animation-fill-mode: backwards, backwards;stroke-dashoffset: 17.29;-webkit-animation-name: kf_el_ctD3Bq5up7w_an_PX-mjxVQk, kf_el_ctD3Bq5up7w_an_Fv6L5L6EI8;animation-name: kf_el_ctD3Bq5up7w_an_PX-mjxVQk, kf_el_ctD3Bq5up7w_an_Fv6L5L6EI8;-webkit-animation-timing-function: cubic-bezier(0.42, 0, 0.58, 1), cubic-bezier(0.42, 0, 0.58, 1);animation-timing-function: cubic-bezier(0.42, 0, 0.58, 1), cubic-bezier(0.42, 0, 0.58, 1);stroke-dasharray: 17.29;}#el_TXurq1G7I8N{fill: #FCB08E;-webkit-transform: translate(-0.9475211760877613px, 0.7380554973879541px) rotate(-361deg);transform: translate(-0.9475211760877613px, 0.7380554973879541px) rotate(-361deg);}#el_jItdXrawvue{fill: url(#linearGradient-5);-webkit-transform: translate(-24.052943609455987px, 29.572961066559976px) rotate(-35deg);transform: translate(-24.052943609455987px, 29.572961066559976px) rotate(-35deg);}#el_lYQby0AkLnp{fill: #FCB08E;}#el_2z4dqTpeyi_{fill: #0189FF;-webkit-transform: translate(-5.589271204159733px, 3.6162235986454974px) rotate(-7deg);transform: translate(-5.589271204159733px, 3.6162235986454974px) rotate(-7deg);}#el_lYQby0AkLnp_an_STfqFEmW-{-webkit-transform: translate(38.867483139038086px, 39.3150520324707px) rotate(20deg) translate(-38.867483139038086px, -39.3150520324707px);transform: translate(38.867483139038086px, 39.3150520324707px) rotate(20deg) translate(-38.867483139038086px, -39.3150520324707px);}#el_2z4dqTpeyi__an_keSgccaDB{-webkit-transform: translate(44.23860168457031px, 31.612102508544922px) rotate(5deg) translate(-44.23860168457031px, -31.612102508544922px);transform: translate(44.23860168457031px, 31.612102508544922px) rotate(5deg) translate(-44.23860168457031px, -31.612102508544922px);}#el_TXurq1G7I8N_an_HdsnymPqu{-webkit-transform: translate(32.23267364501953px, 48.97306442260742px) rotate(0deg) translate(-32.23267364501953px, -48.97306442260742px);transform: translate(32.23267364501953px, 48.97306442260742px) rotate(0deg) translate(-32.23267364501953px, -48.97306442260742px);}#el_lo2il_9DFME_an_k9mR0XFfU{-webkit-animation-fill-mode: backwards;animation-fill-mode: backwards;-webkit-transform: translate(12.5px, 12.5px) scale(0.9, 0.9) translate(-12.5px, -12.5px);transform: translate(12.5px, 12.5px) scale(0.9, 0.9) translate(-12.5px, -12.5px);-webkit-animation-name: kf_el_lo2il_9DFME_an_k9mR0XFfU;animation-name: kf_el_lo2il_9DFME_an_k9mR0XFfU;-webkit-animation-timing-function: cubic-bezier(0, 0, 1, 1);animation-timing-function: cubic-bezier(0, 0, 1, 1);}#el_jItdXrawvue_an_y482HcCnP{-webkit-animation-fill-mode: backwards;animation-fill-mode: backwards;-webkit-transform: translate(29.824878692626953px, 47.28550338745117px) translate(-29.824878692626953px, -47.28550338745117px) translate(2px, 0px);transform: translate(29.824878692626953px, 47.28550338745117px) translate(-29.824878692626953px, -47.28550338745117px) translate(2px, 0px);-webkit-animation-name: kf_el_jItdXrawvue_an_y482HcCnP;animation-name: kf_el_jItdXrawvue_an_y482HcCnP;-webkit-animation-timing-function: cubic-bezier(0, 0, 1, 1);animation-timing-function: cubic-bezier(0, 0, 1, 1);}#el_TXurq1G7I8N_an_R94Z1l7Tq{-webkit-animation-fill-mode: backwards;animation-fill-mode: backwards;-webkit-transform: translate(32.23267364501953px, 48.97306442260742px) translate(-32.23267364501953px, -48.97306442260742px) translate(2px, 0px);transform: translate(32.23267364501953px, 48.97306442260742px) translate(-32.23267364501953px, -48.97306442260742px) translate(2px, 0px);-webkit-animation-name: kf_el_TXurq1G7I8N_an_R94Z1l7Tq;animation-name: kf_el_TXurq1G7I8N_an_R94Z1l7Tq;-webkit-animation-timing-function: cubic-bezier(0, 0, 1, 1);animation-timing-function: cubic-bezier(0, 0, 1, 1);}#el_2z4dqTpeyi__an_ar05E2Jbm{-webkit-transform: translate(26.767732620239258px, 31.612102508544922px) rotate(0deg) translate(-26.767732620239258px, -31.612102508544922px);transform: translate(26.767732620239258px, 31.612102508544922px) rotate(0deg) translate(-26.767732620239258px, -31.612102508544922px);}#el_2z4dqTpeyi__an_zfBsjd2n1{-webkit-transform: translate(44.23860168457031px, 31.612102508544922px) translate(-44.23860168457031px, -31.612102508544922px) translate(1px, 0px);transform: translate(44.23860168457031px, 31.612102508544922px) translate(-44.23860168457031px, -31.612102508544922px) translate(1px, 0px);}#el_lYQby0AkLnp_an_AGwgQFR1P{-webkit-transform: translate(33.490840911865234px, 33.60136413574219px) rotate(0deg) translate(-33.490840911865234px, -33.60136413574219px);transform: translate(33.490840911865234px, 33.60136413574219px) rotate(0deg) translate(-33.490840911865234px, -33.60136413574219px);}</style>
    <!-- Generator: Sketch 53.2 (72643) - https://sketchapp.com -->
    <title>Examen rendido femenino</title>
    <desc>Created with Sketch.</desc>
    <defs>
        <linearGradient x1="46.6570145%" y1="21.1904792%" x2="54.8532999%" y2="75.296077%" id="linearGradient-1">
            <stop stop-color="#00559F" offset="0%"/>
            <stop stop-color="#0189FF" offset="100%"/>
        </linearGradient>
        <linearGradient x1="77.7805927%" y1="121.584971%" x2="25.2374201%" y2="14.8998958%" id="linearGradient-2">
            <stop stop-color="#0084C1" offset="0%"/>
            <stop stop-color="#004D8E" offset="100%"/>
        </linearGradient>
        <linearGradient x1="50%" y1="0%" x2="50%" y2="100%" id="linearGradient-3">
            <stop stop-color="#900000" offset="0%"/>
            <stop stop-color="#CC0000" offset="100%"/>
        </linearGradient>
        <linearGradient x1="50%" y1="88.7308881%" x2="50%" y2="2.77555756e-15%" id="linearGradient-4">
            <stop stop-color="#E6E6E6" offset="0%"/>
            <stop stop-color="#BBBBBB" offset="100%"/>
        </linearGradient>
        <linearGradient x1="50%" y1="0%" x2="50%" y2="100%" id="linearGradient-5">
            <stop stop-color="#900000" offset="0%"/>
            <stop stop-color="#CC0000" offset="100%"/>
        </linearGradient>
    </defs>
    <g id="el_i8IKd-2Hs_" fill-rule="evenodd">
        <g id="el_g1aTYrESaQ">
            <g id="el_ZJ2ioNS8-m">
                <circle id="el_usXTz3hhyX" cx="50" cy="50" r="50"/>
                <path d="M84.4113362,13.7250671 C83.8721035,16.6250083 80.8966668,19.1246053 75.4850261,21.2238584 C47.3678733,32.1309049 54.4135044,52.9842065 34.7241118,63.3187907 C23.0569367,69.4426668 11.9412746,68.9041052 1.37712536,61.7031058 C0.476820569,57.9489955 1.37134748e-12,54.0301815 1.37134748e-12,50 C1.37134748e-12,22.3857625 22.3857625,2.84217094e-14 50,2.84217094e-14 C63.3331158,2.84217094e-14 75.44732,5.21878114 84.4113362,13.7250671 Z" id="el_MTxgtNdtOG"/>
                <path d="M2.58970276e-12,48.5176343 C0.784049141,21.5890633 22.8600499,-2.13162821e-14 49.9784467,-2.13162821e-14 C59.5744489,-2.13162821e-14 68.5390729,2.70325154 76.1523385,7.38977455 C74.7453053,8.68187049 72.6625874,9.86293041 69.9041848,10.9329543 C43.565244,21.1502069 50.1652885,40.684684 31.7211113,50.3656785 C20.6138092,56.1956881 10.0401054,55.5796734 2.53397303e-12,48.5176343 Z" id="el_1eWZfkkRQJ"/>
                <path d="M2.6,34.0615856 C9.25410068,14.2622427 27.964469,3.90798505e-14 50.0059626,3.90798505e-14 C53.8901464,3.90798505e-14 57.6708855,0.442899641 61.3004325,1.28095163 C42.5109744,10.9990721 46.6582553,27.0535391 30.9527476,35.2970586 C21.0369043,40.5016944 11.5859884,40.08987 2.6,34.0615856 Z" id="el_myFVrekSej"/>
            </g>
            <path d="M36,69.8115474 C36.3289326,76.6947678 36.7462929,82.8587623 37.2520808,88.3035311 C37.7578688,93.7482998 38.3907429,99.2197045 39.1507031,104.717745 L40.9274022,104.717745 C42.5962037,98.4511616 43.748631,93.2235682 44.384684,89.034965 C45.020737,84.8463619 46.360166,77.5013735 48.4029711,67 L36,69.8115474 Z" id="el_Rtd9vOxhBZ"/>
            <path d="M27,69.8115474 C27.3289326,76.6947678 27.7462929,82.8587623 28.2520808,88.3035311 C28.7578688,93.7482998 29.3907429,99.2197045 30.1507031,104.717745 L31.9274022,104.717745 C33.5962037,98.4511616 34.748631,93.2235682 35.384684,89.034965 C36.020737,84.8463619 37.360166,77.5013735 39.4029711,67 L27,69.8115474 Z" id="el_4jTclvLQi-"/>
            <g id="el_cBkClW0RPb">
                <g id="el_jTkhRWscO-">
                    <g id="el_L4IeY7YzkL">
                        <path d="M3.81823709,9.02891987 C6.58804697,9.14545241 8.16498796,10.8084773 9.66744586,12.3599194 C11.9211327,14.6870826 14.5775657,16.5353903 17.239225,16.5353903 C19.9008843,16.5353903 21.7081859,16.3156317 19.6980442,18.2335841 C17.6879025,20.1515364 13.1038006,20.7129682 10.3814357,20.1773911 C7.65907074,19.6418139 5.47549986,19.685747 3.31792893,16.3623174 C0.716546762,12.3552601 0.636638862,8.65481582 3.81823709,9.02891987 Z" id="el_L_aCmPQ9-3"/>
                        <path d="M4.80279624,13.5978825 C6.77718912,13.2490402 8.53152974,12.4726415 10.0658181,11.2686863 C11.6001064,10.0647312 12.7006057,8.98442598 13.367316,8.02777072 C11.4675365,4.68875457 8.70565068,2.69231838 5.08165863,2.03846215 C1.45766659,1.38460591 1.36471246,5.23774603 4.80279624,13.5978825 Z" id="el_bcRK-Nj77b"/>
                    </g>
                </g>
                <path d="M33.2275768,45.0847011 C30.2540713,47.1320312 26.4447426,47.0960981 23.095813,47.7790664 C17.8246999,48.8540377 10.2012212,49.4540174 3.49475636,48.6549455 C2.77936023,43.0494616 6.58023405,32.8813656 7.47994489,29.030197 C9.56399315,20.1095295 13.7537005,16.6432397 19.5740974,17.3276234 C22.3439072,17.444156 25.3742584,18.8797166 26.2616906,20.9182894 C28.768749,26.6774013 32.4787153,39.2843714 33.2275768,45.0847011 Z" id="el_Qv6yt44bei"/>
            </g>
            <polygon id="el_f0WYWcO2UiU" points="43 106 47.6377719 106 45.6263389 104 43.3514485 104"/>
            <polygon id="el_avAf2Ovj3QO" points="34 106 38.6377719 106 36.6263389 104 34.3514485 104"/>
            <path d="M51,-7.10542736e-15 L85.1023314,-7.10542736e-15 L102,19.0079162 L102,75.2556463 C102,78.01707 99.7614237,80.2556463 97,80.2556463 L51,80.2556463 C48.2385763,80.2556463 46,78.01707 46,75.2556463 L46,5 C46,2.23857625 48.2385763,-6.59816204e-15 51,-7.10542736e-15 Z" id="el_Jy0Tvs6OWPc"/>
            <rect id="el_F-S3FolIRUX" x="65" y="25" width="46" height="3"/>
            <rect id="el_7oeTkvjCRYS" x="65" y="31" width="24" height="3"/>
            <rect id="el_yhjJ_gpcdd3" x="65" y="44" width="46" height="3"/>
            <rect id="el_71iDYChYqgT" x="65" y="50" width="24" height="3"/>
            <rect id="el__YxGc9QgHWj" x="65" y="63" width="46" height="3"/>
            <rect id="el_KhSqsYv2GyL" x="65" y="69" width="24" height="3"/>
            <circle id="el_rhUak94JSP5" cx="56" cy="29" r="4.5"/>
            <circle id="el_9GvWv3P0ypE" cx="56" cy="48" r="4.5"/>
            <circle id="el_QaTAkxjP2-_" cx="56" cy="67" r="4.5"/>
            <polygon id="el_K0NnB23YehK" points="85 9.05941988e-14 85 19.0079162 102 19.0079162"/>
            <g id="el_fNTvvuv99FA">
                <g id="el_au6C4LJiS7F">
                    <g id="el_lo2il_9DFME_an_k9mR0XFfU" data-animator-group="true" data-animator-type="2"><circle id="el_lo2il_9DFME" cx="12.5" cy="12.5" r="12.5"/></g>
                    <polyline id="el_ctD3Bq5up7w" stroke-linecap="round" stroke-linejoin="round" points="7 13.4718602 10.9374822 17.3746195 19.1800379 9"/>
                </g>
            </g>
            <g id="el_TXurq1G7I8N_an_R94Z1l7Tq" data-animator-group="true" data-animator-type="0"><path d="M34.6543133,48.9992031 C37.4241232,49.1157357 39.0010642,50.7787606 40.5035221,52.3302027 C42.7572089,54.6573659 45.4136419,56.5056736 48.0753012,56.5056736 C50.7369606,56.5056736 52.5442622,56.285915 50.5341205,58.2038673 C48.5239787,60.1218196 43.9398768,60.6832515 41.2175119,60.1476743 C38.495147,59.6120972 36.3115761,59.6560303 34.1540052,56.3326007 C31.552623,52.3255434 31.4727151,48.6250991 34.6543133,48.9992031 Z" id="el_TXurq1G7I8N"/></g>
            <g id="el_jItdXrawvue_an_y482HcCnP" data-animator-group="true" data-animator-type="0"><path d="M31.3511074,58.5736502 C33.3255003,58.2248079 35.0798409,57.4484092 36.6141292,56.2444541 C38.1484176,55.0404989 39.2489169,53.9601937 39.9156272,53.0035384 C37.7355043,48.2296124 35.1867576,46.4449607 32.2693869,47.6495834 C29.3520163,48.8542061 29.0459231,52.4955617 31.3511074,58.5736502 Z" id="el_jItdXrawvue"/></g>
            <path d="M42.5114983,36.4810616 C43.7817163,37.4768764 44.35352,38.2726123 44.2269092,38.8682692 C44.136075,39.2956102 43.8379538,39.6898647 43.4633124,39.9372695 C43.5179341,42.2964881 42.3717628,44.3335489 40.4893166,44.8733317 C38.1236469,45.5516766 34.5769496,43.970125 33.6951013,40.8947544 C32.8132529,37.8193838 34.9301916,34.4147743 37.2958613,33.7364294 C39.2195152,33.1848305 41.3196908,34.3666306 42.5114983,36.4810616 Z" id="el_lYQby0AkLnp"/>
            <path d="M38.1204559,45.6893986 C36.3245468,45.0498405 32.9887083,42.3829647 37.1204731,42.6566213 C41.2522379,42.930278 44.9588069,38.1735932 44.1187041,36.1069179 C43.2786014,34.0402426 40.1114252,31.6121025 36.011281,31.6121025 C31.9111368,31.6121025 28.8141023,35.1173165 27.7950586,37.6277782 C26.776015,40.1382398 24.4376588,44.3191426 20.2103906,43.9812982 C15.9831223,43.6434538 8.67953661,47.1214108 9.3385933,53.572156 C9.99764999,60.0229012 16.5874974,64.5713037 22.9598177,63.1152873 C29.3321381,61.6592708 44.1278204,48.5165161 38.1204559,45.6893986 Z" id="el_2z4dqTpeyi_"/>
        </g>
    </g>
</svg>